M48
; DRILL file {KiCad (5.1.5-0-10_14)} date Friday, March 13, 2020 at 07:41:04 PM
; FORMAT={-:-/ absolute / inch / decimal}
; #@! TF.CreationDate,2020-03-13T19:41:04-07:00
; #@! TF.GenerationSoftware,Kicad,Pcbnew,(5.1.5-0-10_14)
; #@! TF.FileFunction,Plated,1,2,PTH
FMAT,2
INCH
T1C0.0157
T2C0.0315
T3C0.0394
T4C0.0433
%
G90
G05
T1
X1.2625Y-4.195
X1.265Y-1.6025
X1.265Y-1.8225
X1.265Y-2.2525
X1.265Y-2.4725
X1.265Y-2.6875
X1.265Y-2.9025
X1.265Y-3.12
X1.265Y-3.3325
X1.2675Y-2.0375
X1.2675Y-3.5475
X1.2675Y-3.7625
X1.2675Y-3.9775
X1.27Y-4.41
X1.27Y-4.625
X1.5285Y-1.4311
X1.5296Y-1.6479
X1.5296Y-2.0829
X1.5296Y-2.7329
X1.5296Y-2.9479
X1.5296Y-3.1629
X1.5296Y-3.3779
X1.5296Y-3.5929
X1.53Y-4.0225
X1.5304Y-1.8687
X1.5304Y-2.5187
X1.5304Y-3.8087
X1.5304Y-4.2387
X1.5321Y-4.4554
X1.5354Y-4.6712
X2.4304Y-1.4287
X2.4304Y-1.6487
X2.4304Y-1.8687
X2.4304Y-2.0837
X2.4304Y-2.2987
X2.4304Y-2.5187
X2.4304Y-2.7337
X2.4304Y-2.9487
X2.4304Y-3.1637
X2.4304Y-3.3787
X2.4304Y-3.5937
X2.4304Y-3.8087
X2.4304Y-4.0237
X2.4304Y-4.2387
X2.4329Y-4.4562
X2.4354Y-4.6712
X3.6271Y-1.6454
X3.6271Y-2.0804
X3.6271Y-4.2354
X3.6304Y-1.4287
X3.6304Y-1.8687
X3.6304Y-2.2987
X3.6304Y-2.5187
X3.6304Y-2.9487
X3.6304Y-3.1637
X3.6304Y-3.8087
X3.6304Y-4.0237
X3.6321Y-4.6679
X3.6329Y-4.4562
X3.6362Y-2.7337
X3.6362Y-3.3787
X3.6362Y-3.5937
X4.8304Y-1.4287
X4.8304Y-1.6487
X4.8304Y-1.8687
X4.8304Y-2.0837
X4.8304Y-2.2987
X4.8304Y-2.5187
X4.8304Y-2.7337
X4.8304Y-2.9487
X4.8304Y-3.1637
X4.8304Y-3.3787
X4.8304Y-3.5937
X4.8304Y-3.8087
X4.8304Y-4.0237
X4.8304Y-4.2387
X4.8329Y-4.4562
X4.8354Y-4.6712
X5.9074Y-1.4287
X5.9074Y-1.6487
X5.9074Y-1.8687
X5.9074Y-2.0837
X5.9074Y-2.2987
X5.9074Y-2.5187
X5.9074Y-2.7337
X5.9074Y-2.9487
X5.9074Y-3.1637
X5.9074Y-3.3787
X5.9074Y-3.5937
X5.9074Y-3.8087
X5.9074Y-4.0237
X5.9074Y-4.2387
X5.9099Y-4.4562
X5.9124Y-4.6712
X6.0974Y3.8313
X6.3235Y-1.4311
X6.3246Y-1.8679
X6.3246Y-2.0829
X6.3246Y-2.2979
X6.3246Y-2.5179
X6.3246Y-2.7329
X6.3246Y-3.5929
X6.3246Y-3.8079
X6.3246Y-4.0229
X6.3246Y-4.4554
X6.3246Y-4.6704
X6.3254Y-1.6487
X6.3254Y-2.9487
X6.3254Y-3.1637
X6.3254Y-3.3787
X6.3254Y-4.2387
X7.2254Y-1.4287
X7.2254Y-1.6487
X7.2254Y-1.8687
X7.2254Y-2.0837
X7.2254Y-2.2987
X7.2254Y-2.5187
X7.2254Y-2.7337
X7.2254Y-2.9487
X7.2254Y-3.1637
X7.2254Y-3.3787
X7.2254Y-3.5937
X7.2254Y-3.8087
X7.2254Y-4.0237
X7.2254Y-4.2387
X7.2254Y-4.4562
X7.2254Y-4.6712
X8.4221Y-1.8654
X8.4221Y-4.2354
X8.4221Y-4.6679
X8.4254Y-1.4287
X8.4254Y-1.6487
X8.4254Y-2.0837
X8.4254Y-2.7337
X8.4254Y-2.9487
X8.4254Y-3.3787
X8.4254Y-3.5937
X8.4254Y-4.4562
X8.4312Y-2.2987
X8.4312Y-2.5187
X8.4312Y-3.1637
X8.4312Y-3.8087
X8.4312Y-4.0237
X9.6254Y-1.4287
X9.6254Y-1.6487
X9.6254Y-1.8687
X9.6254Y-2.0837
X9.6254Y-2.2987
X9.6254Y-2.5187
X9.6254Y-2.7337
X9.6254Y-2.9487
X9.6254Y-3.1637
X9.6254Y-3.3787
X9.6254Y-3.5937
X9.6254Y-3.8087
X9.6254Y-4.0237
X9.6254Y-4.2387
X9.6254Y-4.4562
X9.6254Y-4.6712
X10.7024Y-1.4287
X10.7024Y-1.6487
X10.7024Y-1.8687
X10.7024Y-2.0837
X10.7024Y-2.2987
X10.7024Y-2.5187
X10.7024Y-2.7337
X10.7024Y-2.9487
X10.7024Y-3.1637
X10.7024Y-3.3787
X10.7024Y-3.5937
X10.7024Y-3.8087
X10.7024Y-4.0237
X10.7024Y-4.2387
X10.7024Y-4.4562
X10.7024Y-4.6712
X10.7775Y-3.86
X10.78Y-1.2675
X10.78Y-1.4875
X10.78Y-1.9175
X10.78Y-2.1375
X10.78Y-2.3525
X10.78Y-2.5675
X10.78Y-2.785
X10.78Y-2.9975
X10.7825Y-1.7025
X10.7825Y-3.2125
X10.7825Y-3.4275
X10.7825Y-3.6425
X10.785Y-4.0725
X10.785Y-4.29
T2
X1.025Y-2.8766
X1.025Y-2.975
T3
X10.9425Y-4.2825
X10.9425Y-4.3825
X10.9425Y-4.4825
X10.9425Y-4.5825
X1.075Y-1.525
X1.075Y-1.625
X1.075Y-1.725
X1.075Y-1.825
T4
X1.025Y-2.375
X1.025Y-2.475
X1.025Y-2.575
X1.025Y-2.675
T0
M30
