G04 #@! TF.GenerationSoftware,KiCad,Pcbnew,(5.1.5-0-10_14)*
G04 #@! TF.CreationDate,2020-03-13T19:41:52-07:00*
G04 #@! TF.ProjectId,SpectrumAnayzerMini32Horz,53706563-7472-4756-9d41-6e61797a6572,rev?*
G04 #@! TF.SameCoordinates,Original*
G04 #@! TF.FileFunction,Copper,L2,Bot*
G04 #@! TF.FilePolarity,Positive*
%FSLAX46Y46*%
G04 Gerber Fmt 4.6, Leading zero omitted, Abs format (unit mm)*
G04 Created by KiCad (PCBNEW (5.1.5-0-10_14)) date 2020-03-13 19:41:52*
%MOMM*%
%LPD*%
G04 APERTURE LIST*
%ADD10C,2.200000*%
%ADD11R,2.200000X2.200000*%
%ADD12O,1.700000X1.700000*%
%ADD13R,1.700000X1.700000*%
%ADD14C,1.600000*%
%ADD15R,1.600000X1.600000*%
%ADD16C,0.800000*%
%ADD17C,0.508000*%
%ADD18C,0.762000*%
%ADD19C,0.254000*%
G04 APERTURE END LIST*
D10*
X26035000Y-67945000D03*
X26035000Y-65405000D03*
X26035000Y-62865000D03*
D11*
X26035000Y-60325000D03*
D12*
X277939500Y-116395500D03*
X277939500Y-113855500D03*
X277939500Y-111315500D03*
D13*
X277939500Y-108775500D03*
D12*
X27305000Y-38735000D03*
X27305000Y-41275000D03*
X27305000Y-43815000D03*
D13*
X27305000Y-46355000D03*
D14*
X26035000Y-73065000D03*
D15*
X26035000Y-75565000D03*
D16*
X273812000Y-32194500D03*
X32131000Y-40703500D03*
X273812000Y-37782500D03*
X32131000Y-46291500D03*
X273875500Y-43243500D03*
X32194500Y-51752500D03*
X273812000Y-48704500D03*
X32131000Y-57213500D03*
X273812000Y-54292500D03*
X32131000Y-62801500D03*
X273812000Y-59753500D03*
X32131000Y-68262500D03*
X273812000Y-65214500D03*
X32131000Y-73723500D03*
X273812000Y-70739000D03*
X32131000Y-79248000D03*
X273812000Y-76136500D03*
X32131000Y-84645500D03*
X273875500Y-81597500D03*
X32194500Y-90106500D03*
X273875500Y-87058500D03*
X32194500Y-95567500D03*
X273875500Y-92519500D03*
X32194500Y-101028500D03*
X273748500Y-98044000D03*
X32067500Y-106553000D03*
X61732000Y-36288500D03*
X183525000Y-36288500D03*
X61732000Y-41876500D03*
X183525000Y-41876500D03*
X61732000Y-47464500D03*
X183525000Y-47464500D03*
X61732000Y-52925500D03*
X183525000Y-52925500D03*
X61732000Y-58386500D03*
X183525000Y-58386500D03*
X61732000Y-63974500D03*
X183525000Y-63974500D03*
X61732000Y-69435500D03*
X183525000Y-69435500D03*
X61732000Y-74896500D03*
X183525000Y-74896500D03*
X61732000Y-80357500D03*
X183525000Y-80357500D03*
X61732000Y-85818500D03*
X183525000Y-85818500D03*
X61732000Y-91279500D03*
X183525000Y-91279500D03*
X61732000Y-96740500D03*
X183525000Y-96740500D03*
X61732000Y-102201500D03*
X183525000Y-102201500D03*
X61732000Y-107662500D03*
X183525000Y-107662500D03*
X61795500Y-113187000D03*
X183525000Y-113187000D03*
X61859000Y-118648000D03*
X183525000Y-118648000D03*
X244485000Y-118648000D03*
X122819000Y-118648000D03*
X244485000Y-113187000D03*
X122755500Y-113187000D03*
X244485000Y-107662500D03*
X122692000Y-107662500D03*
X244485000Y-102201500D03*
X122692000Y-102201500D03*
X244485000Y-96740500D03*
X122692000Y-96740500D03*
X244485000Y-91279500D03*
X122692000Y-91279500D03*
X244485000Y-85818500D03*
X122692000Y-85818500D03*
X244485000Y-80357500D03*
X122692000Y-80357500D03*
X244485000Y-74896500D03*
X122692000Y-74896500D03*
X244485000Y-69435500D03*
X122692000Y-69435500D03*
X244485000Y-63974500D03*
X122692000Y-63974500D03*
X244485000Y-58386500D03*
X122692000Y-58386500D03*
X244485000Y-52925500D03*
X122692000Y-52925500D03*
X244485000Y-47464500D03*
X122692000Y-47464500D03*
X244485000Y-41876500D03*
X122692000Y-41876500D03*
X244485000Y-36288500D03*
X122692000Y-36288500D03*
X38823000Y-36350500D03*
X160616000Y-36350500D03*
X38852000Y-41856500D03*
X160665000Y-41876500D03*
X38872000Y-47464500D03*
X160645000Y-47444500D03*
X38852000Y-52905500D03*
X160645000Y-52905500D03*
X160645000Y-58366500D03*
X38872000Y-63974500D03*
X160645000Y-63954500D03*
X38852000Y-69415500D03*
X160645000Y-69415500D03*
X38852000Y-74876500D03*
X160665000Y-74896500D03*
X38852000Y-80337500D03*
X160665000Y-80357500D03*
X38852000Y-85798500D03*
X38862000Y-102171500D03*
X160645000Y-102181500D03*
X38872000Y-107662500D03*
X160665000Y-107662500D03*
X38915500Y-113167000D03*
X160645000Y-113167000D03*
X38999000Y-118648000D03*
X160645000Y-118628000D03*
X38872000Y-96740500D03*
X160665000Y-85818500D03*
X38852000Y-91259500D03*
X160645000Y-91259500D03*
X160645000Y-96720500D03*
X92212000Y-36288500D03*
X214005000Y-36288500D03*
X92128500Y-41793000D03*
X214005000Y-41876500D03*
X92212000Y-47464500D03*
X213921500Y-47381000D03*
X92128500Y-52842000D03*
X214005000Y-52925500D03*
X92212000Y-58386500D03*
X214152000Y-58386500D03*
X92212000Y-63974500D03*
X214152000Y-63974500D03*
X92359000Y-69435500D03*
X214005000Y-69435500D03*
X92212000Y-74896500D03*
X214005000Y-74896500D03*
X213921500Y-118564500D03*
X92255500Y-118564500D03*
X214005000Y-113187000D03*
X92275500Y-113187000D03*
X213921500Y-107579000D03*
X92128500Y-107579000D03*
X214152000Y-102201500D03*
X92212000Y-102201500D03*
X214152000Y-96740500D03*
X92212000Y-96740500D03*
X214005000Y-91279500D03*
X92359000Y-91279500D03*
X92212000Y-80357500D03*
X214152000Y-80357500D03*
X92359000Y-85818500D03*
X214005000Y-85818500D03*
X150048000Y-36288500D03*
X271841000Y-36288500D03*
X150048000Y-41876500D03*
X271841000Y-41876500D03*
X150048000Y-47464500D03*
X271841000Y-47464500D03*
X150048000Y-52925500D03*
X271841000Y-52925500D03*
X150048000Y-58386500D03*
X271841000Y-58386500D03*
X150048000Y-63974500D03*
X271841000Y-63974500D03*
X150048000Y-69435500D03*
X271841000Y-69435500D03*
X150048000Y-74896500D03*
X271841000Y-74896500D03*
X150048000Y-80357500D03*
X271841000Y-80357500D03*
X150048000Y-85818500D03*
X271841000Y-85818500D03*
X150048000Y-91279500D03*
X271841000Y-91279500D03*
X150048000Y-96740500D03*
X271841000Y-96740500D03*
X150048000Y-102201500D03*
X271841000Y-102201500D03*
X150048000Y-107662500D03*
X271841000Y-107662500D03*
X150111500Y-113187000D03*
X271841000Y-113187000D03*
X150175000Y-118648000D03*
X271841000Y-118648000D03*
X273939000Y-103441500D03*
X32258000Y-112014000D03*
X273939000Y-108966000D03*
X32258000Y-117475000D03*
D17*
X40640000Y-32194500D02*
X32131000Y-40703500D01*
X273812000Y-32194500D02*
X40640000Y-32194500D01*
X40640000Y-37782500D02*
X32131000Y-46291500D01*
X273812000Y-37782500D02*
X40640000Y-37782500D01*
X40703500Y-43243500D02*
X32194500Y-51752500D01*
X273875500Y-43243500D02*
X40703500Y-43243500D01*
X40640000Y-48704500D02*
X32131000Y-57213500D01*
X273812000Y-48704500D02*
X40640000Y-48704500D01*
X40640000Y-54292500D02*
X32131000Y-62801500D01*
X273812000Y-54292500D02*
X40640000Y-54292500D01*
X40640000Y-59753500D02*
X32131000Y-68262500D01*
X273812000Y-59753500D02*
X40640000Y-59753500D01*
X40640000Y-65214500D02*
X32131000Y-73723500D01*
X273812000Y-65214500D02*
X40640000Y-65214500D01*
X40640000Y-70739000D02*
X32131000Y-79248000D01*
X273812000Y-70739000D02*
X40640000Y-70739000D01*
X40640000Y-76136500D02*
X32131000Y-84645500D01*
X273812000Y-76136500D02*
X40640000Y-76136500D01*
X40703500Y-81597500D02*
X32194500Y-90106500D01*
X273875500Y-81597500D02*
X40703500Y-81597500D01*
X40703500Y-87058500D02*
X32194500Y-95567500D01*
X273875500Y-87058500D02*
X40703500Y-87058500D01*
X40703500Y-92519500D02*
X32194500Y-101028500D01*
X273875500Y-92519500D02*
X40703500Y-92519500D01*
X40576500Y-98044000D02*
X32067500Y-106553000D01*
X273748500Y-98044000D02*
X40576500Y-98044000D01*
D18*
X21590000Y-43815000D02*
X21590000Y-62865000D01*
X24130000Y-41275000D02*
X21590000Y-43815000D01*
X27305000Y-41275000D02*
X24130000Y-41275000D01*
X24130000Y-65405000D02*
X21590000Y-62865000D01*
X26035000Y-65405000D02*
X24130000Y-65405000D01*
D17*
X40830500Y-103441500D02*
X32258000Y-112014000D01*
X273939000Y-103441500D02*
X40830500Y-103441500D01*
X40767000Y-108966000D02*
X32258000Y-117475000D01*
X273939000Y-108966000D02*
X40767000Y-108966000D01*
D19*
G36*
X280645001Y-123165000D02*
G01*
X21615000Y-123165000D01*
X21615000Y-120972344D01*
X21737000Y-120972344D01*
X21737000Y-121343656D01*
X21809439Y-121707834D01*
X21951534Y-122050882D01*
X22157825Y-122359618D01*
X22420382Y-122622175D01*
X22729118Y-122828466D01*
X23072166Y-122970561D01*
X23436344Y-123043000D01*
X23807656Y-123043000D01*
X24171834Y-122970561D01*
X24514882Y-122828466D01*
X24823618Y-122622175D01*
X25086175Y-122359618D01*
X25292466Y-122050882D01*
X25434561Y-121707834D01*
X25507000Y-121343656D01*
X25507000Y-120972344D01*
X276753000Y-120972344D01*
X276753000Y-121343656D01*
X276825439Y-121707834D01*
X276967534Y-122050882D01*
X277173825Y-122359618D01*
X277436382Y-122622175D01*
X277745118Y-122828466D01*
X278088166Y-122970561D01*
X278452344Y-123043000D01*
X278823656Y-123043000D01*
X279187834Y-122970561D01*
X279530882Y-122828466D01*
X279839618Y-122622175D01*
X280102175Y-122359618D01*
X280308466Y-122050882D01*
X280450561Y-121707834D01*
X280523000Y-121343656D01*
X280523000Y-120972344D01*
X280450561Y-120608166D01*
X280308466Y-120265118D01*
X280102175Y-119956382D01*
X279839618Y-119693825D01*
X279530882Y-119487534D01*
X279187834Y-119345439D01*
X278823656Y-119273000D01*
X278452344Y-119273000D01*
X278088166Y-119345439D01*
X277745118Y-119487534D01*
X277436382Y-119693825D01*
X277173825Y-119956382D01*
X276967534Y-120265118D01*
X276825439Y-120608166D01*
X276753000Y-120972344D01*
X25507000Y-120972344D01*
X25434561Y-120608166D01*
X25292466Y-120265118D01*
X25086175Y-119956382D01*
X24823618Y-119693825D01*
X24514882Y-119487534D01*
X24171834Y-119345439D01*
X23807656Y-119273000D01*
X23436344Y-119273000D01*
X23072166Y-119345439D01*
X22729118Y-119487534D01*
X22420382Y-119693825D01*
X22157825Y-119956382D01*
X21951534Y-120265118D01*
X21809439Y-120608166D01*
X21737000Y-120972344D01*
X21615000Y-120972344D01*
X21615000Y-117373061D01*
X31223000Y-117373061D01*
X31223000Y-117576939D01*
X31262774Y-117776898D01*
X31340795Y-117965256D01*
X31454063Y-118134774D01*
X31598226Y-118278937D01*
X31767744Y-118392205D01*
X31956102Y-118470226D01*
X32156061Y-118510000D01*
X32359939Y-118510000D01*
X32559898Y-118470226D01*
X32748256Y-118392205D01*
X32917774Y-118278937D01*
X33061937Y-118134774D01*
X33175205Y-117965256D01*
X33253226Y-117776898D01*
X33263130Y-117727105D01*
X41135236Y-109855000D01*
X273406532Y-109855000D01*
X273448744Y-109883205D01*
X273637102Y-109961226D01*
X273837061Y-110001000D01*
X274040939Y-110001000D01*
X274240898Y-109961226D01*
X274429256Y-109883205D01*
X274598774Y-109769937D01*
X274742937Y-109625774D01*
X274743120Y-109625500D01*
X276451428Y-109625500D01*
X276463688Y-109749982D01*
X276499998Y-109869680D01*
X276558963Y-109979994D01*
X276638315Y-110076685D01*
X276735006Y-110156037D01*
X276845320Y-110215002D01*
X276917880Y-110237013D01*
X276786025Y-110368868D01*
X276623510Y-110612089D01*
X276511568Y-110882342D01*
X276454500Y-111169240D01*
X276454500Y-111461760D01*
X276511568Y-111748658D01*
X276623510Y-112018911D01*
X276786025Y-112262132D01*
X276992868Y-112468975D01*
X277167260Y-112585500D01*
X276992868Y-112702025D01*
X276786025Y-112908868D01*
X276623510Y-113152089D01*
X276511568Y-113422342D01*
X276454500Y-113709240D01*
X276454500Y-114001760D01*
X276511568Y-114288658D01*
X276623510Y-114558911D01*
X276786025Y-114802132D01*
X276992868Y-115008975D01*
X277167260Y-115125500D01*
X276992868Y-115242025D01*
X276786025Y-115448868D01*
X276623510Y-115692089D01*
X276511568Y-115962342D01*
X276454500Y-116249240D01*
X276454500Y-116541760D01*
X276511568Y-116828658D01*
X276623510Y-117098911D01*
X276786025Y-117342132D01*
X276992868Y-117548975D01*
X277236089Y-117711490D01*
X277506342Y-117823432D01*
X277793240Y-117880500D01*
X278085760Y-117880500D01*
X278372658Y-117823432D01*
X278642911Y-117711490D01*
X278886132Y-117548975D01*
X279092975Y-117342132D01*
X279255490Y-117098911D01*
X279367432Y-116828658D01*
X279424500Y-116541760D01*
X279424500Y-116249240D01*
X279367432Y-115962342D01*
X279255490Y-115692089D01*
X279092975Y-115448868D01*
X278886132Y-115242025D01*
X278711740Y-115125500D01*
X278886132Y-115008975D01*
X279092975Y-114802132D01*
X279255490Y-114558911D01*
X279367432Y-114288658D01*
X279424500Y-114001760D01*
X279424500Y-113709240D01*
X279367432Y-113422342D01*
X279255490Y-113152089D01*
X279092975Y-112908868D01*
X278886132Y-112702025D01*
X278711740Y-112585500D01*
X278886132Y-112468975D01*
X279092975Y-112262132D01*
X279255490Y-112018911D01*
X279367432Y-111748658D01*
X279424500Y-111461760D01*
X279424500Y-111169240D01*
X279367432Y-110882342D01*
X279255490Y-110612089D01*
X279092975Y-110368868D01*
X278961120Y-110237013D01*
X279033680Y-110215002D01*
X279143994Y-110156037D01*
X279240685Y-110076685D01*
X279320037Y-109979994D01*
X279379002Y-109869680D01*
X279415312Y-109749982D01*
X279427572Y-109625500D01*
X279424500Y-109061250D01*
X279265750Y-108902500D01*
X278066500Y-108902500D01*
X278066500Y-108922500D01*
X277812500Y-108922500D01*
X277812500Y-108902500D01*
X276613250Y-108902500D01*
X276454500Y-109061250D01*
X276451428Y-109625500D01*
X274743120Y-109625500D01*
X274856205Y-109456256D01*
X274934226Y-109267898D01*
X274974000Y-109067939D01*
X274974000Y-108864061D01*
X274934226Y-108664102D01*
X274856205Y-108475744D01*
X274742937Y-108306226D01*
X274598774Y-108162063D01*
X274429256Y-108048795D01*
X274240898Y-107970774D01*
X274040939Y-107931000D01*
X273837061Y-107931000D01*
X273637102Y-107970774D01*
X273448744Y-108048795D01*
X273406532Y-108077000D01*
X40810659Y-108077000D01*
X40766999Y-108072700D01*
X40723339Y-108077000D01*
X40723333Y-108077000D01*
X40625924Y-108086594D01*
X40592724Y-108089864D01*
X40491058Y-108120704D01*
X40425149Y-108140697D01*
X40270709Y-108223247D01*
X40135341Y-108334341D01*
X40107506Y-108368258D01*
X32005895Y-116469870D01*
X31956102Y-116479774D01*
X31767744Y-116557795D01*
X31598226Y-116671063D01*
X31454063Y-116815226D01*
X31340795Y-116984744D01*
X31262774Y-117173102D01*
X31223000Y-117373061D01*
X21615000Y-117373061D01*
X21615000Y-111912061D01*
X31223000Y-111912061D01*
X31223000Y-112115939D01*
X31262774Y-112315898D01*
X31340795Y-112504256D01*
X31454063Y-112673774D01*
X31598226Y-112817937D01*
X31767744Y-112931205D01*
X31956102Y-113009226D01*
X32156061Y-113049000D01*
X32359939Y-113049000D01*
X32559898Y-113009226D01*
X32748256Y-112931205D01*
X32917774Y-112817937D01*
X33061937Y-112673774D01*
X33175205Y-112504256D01*
X33253226Y-112315898D01*
X33263130Y-112266105D01*
X37603735Y-107925500D01*
X276451428Y-107925500D01*
X276454500Y-108489750D01*
X276613250Y-108648500D01*
X277812500Y-108648500D01*
X277812500Y-107449250D01*
X278066500Y-107449250D01*
X278066500Y-108648500D01*
X279265750Y-108648500D01*
X279424500Y-108489750D01*
X279427572Y-107925500D01*
X279415312Y-107801018D01*
X279379002Y-107681320D01*
X279320037Y-107571006D01*
X279240685Y-107474315D01*
X279143994Y-107394963D01*
X279033680Y-107335998D01*
X278913982Y-107299688D01*
X278789500Y-107287428D01*
X278225250Y-107290500D01*
X278066500Y-107449250D01*
X277812500Y-107449250D01*
X277653750Y-107290500D01*
X277089500Y-107287428D01*
X276965018Y-107299688D01*
X276845320Y-107335998D01*
X276735006Y-107394963D01*
X276638315Y-107474315D01*
X276558963Y-107571006D01*
X276499998Y-107681320D01*
X276463688Y-107801018D01*
X276451428Y-107925500D01*
X37603735Y-107925500D01*
X41198736Y-104330500D01*
X273406532Y-104330500D01*
X273448744Y-104358705D01*
X273637102Y-104436726D01*
X273837061Y-104476500D01*
X274040939Y-104476500D01*
X274240898Y-104436726D01*
X274429256Y-104358705D01*
X274598774Y-104245437D01*
X274742937Y-104101274D01*
X274856205Y-103931756D01*
X274934226Y-103743398D01*
X274974000Y-103543439D01*
X274974000Y-103339561D01*
X274934226Y-103139602D01*
X274856205Y-102951244D01*
X274742937Y-102781726D01*
X274598774Y-102637563D01*
X274429256Y-102524295D01*
X274240898Y-102446274D01*
X274040939Y-102406500D01*
X273837061Y-102406500D01*
X273637102Y-102446274D01*
X273448744Y-102524295D01*
X273406532Y-102552500D01*
X40874160Y-102552500D01*
X40830500Y-102548200D01*
X40786840Y-102552500D01*
X40786833Y-102552500D01*
X40672825Y-102563729D01*
X40656225Y-102565364D01*
X40583258Y-102587498D01*
X40488649Y-102616197D01*
X40334209Y-102698747D01*
X40198841Y-102809841D01*
X40171006Y-102843758D01*
X32005895Y-111008870D01*
X31956102Y-111018774D01*
X31767744Y-111096795D01*
X31598226Y-111210063D01*
X31454063Y-111354226D01*
X31340795Y-111523744D01*
X31262774Y-111712102D01*
X31223000Y-111912061D01*
X21615000Y-111912061D01*
X21615000Y-106451061D01*
X31032500Y-106451061D01*
X31032500Y-106654939D01*
X31072274Y-106854898D01*
X31150295Y-107043256D01*
X31263563Y-107212774D01*
X31407726Y-107356937D01*
X31577244Y-107470205D01*
X31765602Y-107548226D01*
X31965561Y-107588000D01*
X32169439Y-107588000D01*
X32369398Y-107548226D01*
X32557756Y-107470205D01*
X32727274Y-107356937D01*
X32871437Y-107212774D01*
X32984705Y-107043256D01*
X33062726Y-106854898D01*
X33072630Y-106805105D01*
X40944736Y-98933000D01*
X273216032Y-98933000D01*
X273258244Y-98961205D01*
X273446602Y-99039226D01*
X273646561Y-99079000D01*
X273850439Y-99079000D01*
X274050398Y-99039226D01*
X274238756Y-98961205D01*
X274408274Y-98847937D01*
X274552437Y-98703774D01*
X274665705Y-98534256D01*
X274743726Y-98345898D01*
X274783500Y-98145939D01*
X274783500Y-97942061D01*
X274743726Y-97742102D01*
X274665705Y-97553744D01*
X274552437Y-97384226D01*
X274408274Y-97240063D01*
X274238756Y-97126795D01*
X274050398Y-97048774D01*
X273850439Y-97009000D01*
X273646561Y-97009000D01*
X273446602Y-97048774D01*
X273258244Y-97126795D01*
X273216032Y-97155000D01*
X40620159Y-97155000D01*
X40576499Y-97150700D01*
X40532839Y-97155000D01*
X40532833Y-97155000D01*
X40435424Y-97164594D01*
X40402224Y-97167864D01*
X40300558Y-97198704D01*
X40234649Y-97218697D01*
X40080209Y-97301247D01*
X39944841Y-97412341D01*
X39917006Y-97446258D01*
X31815395Y-105547870D01*
X31765602Y-105557774D01*
X31577244Y-105635795D01*
X31407726Y-105749063D01*
X31263563Y-105893226D01*
X31150295Y-106062744D01*
X31072274Y-106251102D01*
X31032500Y-106451061D01*
X21615000Y-106451061D01*
X21615000Y-100926561D01*
X31159500Y-100926561D01*
X31159500Y-101130439D01*
X31199274Y-101330398D01*
X31277295Y-101518756D01*
X31390563Y-101688274D01*
X31534726Y-101832437D01*
X31704244Y-101945705D01*
X31892602Y-102023726D01*
X32092561Y-102063500D01*
X32296439Y-102063500D01*
X32496398Y-102023726D01*
X32684756Y-101945705D01*
X32854274Y-101832437D01*
X32998437Y-101688274D01*
X33111705Y-101518756D01*
X33189726Y-101330398D01*
X33199630Y-101280605D01*
X41071736Y-93408500D01*
X273343032Y-93408500D01*
X273385244Y-93436705D01*
X273573602Y-93514726D01*
X273773561Y-93554500D01*
X273977439Y-93554500D01*
X274177398Y-93514726D01*
X274365756Y-93436705D01*
X274535274Y-93323437D01*
X274679437Y-93179274D01*
X274792705Y-93009756D01*
X274870726Y-92821398D01*
X274910500Y-92621439D01*
X274910500Y-92417561D01*
X274870726Y-92217602D01*
X274792705Y-92029244D01*
X274679437Y-91859726D01*
X274535274Y-91715563D01*
X274365756Y-91602295D01*
X274177398Y-91524274D01*
X273977439Y-91484500D01*
X273773561Y-91484500D01*
X273573602Y-91524274D01*
X273385244Y-91602295D01*
X273343032Y-91630500D01*
X40747159Y-91630500D01*
X40703499Y-91626200D01*
X40659839Y-91630500D01*
X40659833Y-91630500D01*
X40562424Y-91640094D01*
X40529224Y-91643364D01*
X40427558Y-91674204D01*
X40361649Y-91694197D01*
X40207209Y-91776747D01*
X40071841Y-91887841D01*
X40044006Y-91921758D01*
X31942395Y-100023370D01*
X31892602Y-100033274D01*
X31704244Y-100111295D01*
X31534726Y-100224563D01*
X31390563Y-100368726D01*
X31277295Y-100538244D01*
X31199274Y-100726602D01*
X31159500Y-100926561D01*
X21615000Y-100926561D01*
X21615000Y-95465561D01*
X31159500Y-95465561D01*
X31159500Y-95669439D01*
X31199274Y-95869398D01*
X31277295Y-96057756D01*
X31390563Y-96227274D01*
X31534726Y-96371437D01*
X31704244Y-96484705D01*
X31892602Y-96562726D01*
X32092561Y-96602500D01*
X32296439Y-96602500D01*
X32496398Y-96562726D01*
X32684756Y-96484705D01*
X32854274Y-96371437D01*
X32998437Y-96227274D01*
X33111705Y-96057756D01*
X33189726Y-95869398D01*
X33199630Y-95819605D01*
X41071736Y-87947500D01*
X273343032Y-87947500D01*
X273385244Y-87975705D01*
X273573602Y-88053726D01*
X273773561Y-88093500D01*
X273977439Y-88093500D01*
X274177398Y-88053726D01*
X274365756Y-87975705D01*
X274535274Y-87862437D01*
X274679437Y-87718274D01*
X274792705Y-87548756D01*
X274870726Y-87360398D01*
X274910500Y-87160439D01*
X274910500Y-86956561D01*
X274870726Y-86756602D01*
X274792705Y-86568244D01*
X274679437Y-86398726D01*
X274535274Y-86254563D01*
X274365756Y-86141295D01*
X274177398Y-86063274D01*
X273977439Y-86023500D01*
X273773561Y-86023500D01*
X273573602Y-86063274D01*
X273385244Y-86141295D01*
X273343032Y-86169500D01*
X40747159Y-86169500D01*
X40703499Y-86165200D01*
X40659839Y-86169500D01*
X40659833Y-86169500D01*
X40562424Y-86179094D01*
X40529224Y-86182364D01*
X40427558Y-86213204D01*
X40361649Y-86233197D01*
X40207209Y-86315747D01*
X40071841Y-86426841D01*
X40044006Y-86460758D01*
X31942395Y-94562370D01*
X31892602Y-94572274D01*
X31704244Y-94650295D01*
X31534726Y-94763563D01*
X31390563Y-94907726D01*
X31277295Y-95077244D01*
X31199274Y-95265602D01*
X31159500Y-95465561D01*
X21615000Y-95465561D01*
X21615000Y-90004561D01*
X31159500Y-90004561D01*
X31159500Y-90208439D01*
X31199274Y-90408398D01*
X31277295Y-90596756D01*
X31390563Y-90766274D01*
X31534726Y-90910437D01*
X31704244Y-91023705D01*
X31892602Y-91101726D01*
X32092561Y-91141500D01*
X32296439Y-91141500D01*
X32496398Y-91101726D01*
X32684756Y-91023705D01*
X32854274Y-90910437D01*
X32998437Y-90766274D01*
X33111705Y-90596756D01*
X33189726Y-90408398D01*
X33199630Y-90358605D01*
X41071736Y-82486500D01*
X273343032Y-82486500D01*
X273385244Y-82514705D01*
X273573602Y-82592726D01*
X273773561Y-82632500D01*
X273977439Y-82632500D01*
X274177398Y-82592726D01*
X274365756Y-82514705D01*
X274535274Y-82401437D01*
X274679437Y-82257274D01*
X274792705Y-82087756D01*
X274870726Y-81899398D01*
X274910500Y-81699439D01*
X274910500Y-81495561D01*
X274870726Y-81295602D01*
X274792705Y-81107244D01*
X274679437Y-80937726D01*
X274535274Y-80793563D01*
X274365756Y-80680295D01*
X274177398Y-80602274D01*
X273977439Y-80562500D01*
X273773561Y-80562500D01*
X273573602Y-80602274D01*
X273385244Y-80680295D01*
X273343032Y-80708500D01*
X40747159Y-80708500D01*
X40703499Y-80704200D01*
X40659839Y-80708500D01*
X40659833Y-80708500D01*
X40562424Y-80718094D01*
X40529224Y-80721364D01*
X40427558Y-80752204D01*
X40361649Y-80772197D01*
X40207209Y-80854747D01*
X40071841Y-80965841D01*
X40044006Y-80999758D01*
X31942395Y-89101370D01*
X31892602Y-89111274D01*
X31704244Y-89189295D01*
X31534726Y-89302563D01*
X31390563Y-89446726D01*
X31277295Y-89616244D01*
X31199274Y-89804602D01*
X31159500Y-90004561D01*
X21615000Y-90004561D01*
X21615000Y-84543561D01*
X31096000Y-84543561D01*
X31096000Y-84747439D01*
X31135774Y-84947398D01*
X31213795Y-85135756D01*
X31327063Y-85305274D01*
X31471226Y-85449437D01*
X31640744Y-85562705D01*
X31829102Y-85640726D01*
X32029061Y-85680500D01*
X32232939Y-85680500D01*
X32432898Y-85640726D01*
X32621256Y-85562705D01*
X32790774Y-85449437D01*
X32934937Y-85305274D01*
X33048205Y-85135756D01*
X33126226Y-84947398D01*
X33136130Y-84897605D01*
X41008236Y-77025500D01*
X273279532Y-77025500D01*
X273321744Y-77053705D01*
X273510102Y-77131726D01*
X273710061Y-77171500D01*
X273913939Y-77171500D01*
X274113898Y-77131726D01*
X274302256Y-77053705D01*
X274471774Y-76940437D01*
X274615937Y-76796274D01*
X274729205Y-76626756D01*
X274807226Y-76438398D01*
X274847000Y-76238439D01*
X274847000Y-76034561D01*
X274807226Y-75834602D01*
X274729205Y-75646244D01*
X274615937Y-75476726D01*
X274471774Y-75332563D01*
X274302256Y-75219295D01*
X274113898Y-75141274D01*
X273913939Y-75101500D01*
X273710061Y-75101500D01*
X273510102Y-75141274D01*
X273321744Y-75219295D01*
X273279532Y-75247500D01*
X40683659Y-75247500D01*
X40639999Y-75243200D01*
X40596339Y-75247500D01*
X40596333Y-75247500D01*
X40498924Y-75257094D01*
X40465724Y-75260364D01*
X40364058Y-75291204D01*
X40298149Y-75311197D01*
X40143709Y-75393747D01*
X40008341Y-75504841D01*
X39980506Y-75538758D01*
X31878895Y-83640370D01*
X31829102Y-83650274D01*
X31640744Y-83728295D01*
X31471226Y-83841563D01*
X31327063Y-83985726D01*
X31213795Y-84155244D01*
X31135774Y-84343602D01*
X31096000Y-84543561D01*
X21615000Y-84543561D01*
X21615000Y-79146061D01*
X31096000Y-79146061D01*
X31096000Y-79349939D01*
X31135774Y-79549898D01*
X31213795Y-79738256D01*
X31327063Y-79907774D01*
X31471226Y-80051937D01*
X31640744Y-80165205D01*
X31829102Y-80243226D01*
X32029061Y-80283000D01*
X32232939Y-80283000D01*
X32432898Y-80243226D01*
X32621256Y-80165205D01*
X32790774Y-80051937D01*
X32934937Y-79907774D01*
X33048205Y-79738256D01*
X33126226Y-79549898D01*
X33136130Y-79500105D01*
X41008236Y-71628000D01*
X273279532Y-71628000D01*
X273321744Y-71656205D01*
X273510102Y-71734226D01*
X273710061Y-71774000D01*
X273913939Y-71774000D01*
X274113898Y-71734226D01*
X274302256Y-71656205D01*
X274471774Y-71542937D01*
X274615937Y-71398774D01*
X274729205Y-71229256D01*
X274807226Y-71040898D01*
X274847000Y-70840939D01*
X274847000Y-70637061D01*
X274807226Y-70437102D01*
X274729205Y-70248744D01*
X274615937Y-70079226D01*
X274471774Y-69935063D01*
X274302256Y-69821795D01*
X274113898Y-69743774D01*
X273913939Y-69704000D01*
X273710061Y-69704000D01*
X273510102Y-69743774D01*
X273321744Y-69821795D01*
X273279532Y-69850000D01*
X40683659Y-69850000D01*
X40639999Y-69845700D01*
X40596339Y-69850000D01*
X40596333Y-69850000D01*
X40498924Y-69859594D01*
X40465724Y-69862864D01*
X40364058Y-69893704D01*
X40298149Y-69913697D01*
X40143709Y-69996247D01*
X40008341Y-70107341D01*
X39980506Y-70141258D01*
X31878895Y-78242870D01*
X31829102Y-78252774D01*
X31640744Y-78330795D01*
X31471226Y-78444063D01*
X31327063Y-78588226D01*
X31213795Y-78757744D01*
X31135774Y-78946102D01*
X31096000Y-79146061D01*
X21615000Y-79146061D01*
X21615000Y-76365000D01*
X24596928Y-76365000D01*
X24609188Y-76489482D01*
X24645498Y-76609180D01*
X24704463Y-76719494D01*
X24783815Y-76816185D01*
X24880506Y-76895537D01*
X24990820Y-76954502D01*
X25110518Y-76990812D01*
X25235000Y-77003072D01*
X25749250Y-77000000D01*
X25908000Y-76841250D01*
X25908000Y-75692000D01*
X26162000Y-75692000D01*
X26162000Y-76841250D01*
X26320750Y-77000000D01*
X26835000Y-77003072D01*
X26959482Y-76990812D01*
X27079180Y-76954502D01*
X27189494Y-76895537D01*
X27286185Y-76816185D01*
X27365537Y-76719494D01*
X27424502Y-76609180D01*
X27460812Y-76489482D01*
X27473072Y-76365000D01*
X27470000Y-75850750D01*
X27311250Y-75692000D01*
X26162000Y-75692000D01*
X25908000Y-75692000D01*
X24758750Y-75692000D01*
X24600000Y-75850750D01*
X24596928Y-76365000D01*
X21615000Y-76365000D01*
X21615000Y-74765000D01*
X24596928Y-74765000D01*
X24600000Y-75279250D01*
X24758750Y-75438000D01*
X25908000Y-75438000D01*
X25908000Y-75418000D01*
X26162000Y-75418000D01*
X26162000Y-75438000D01*
X27311250Y-75438000D01*
X27470000Y-75279250D01*
X27473072Y-74765000D01*
X27460812Y-74640518D01*
X27424502Y-74520820D01*
X27365537Y-74410506D01*
X27286185Y-74313815D01*
X27189494Y-74234463D01*
X27079180Y-74175498D01*
X26983057Y-74146339D01*
X27149637Y-73979759D01*
X27306680Y-73744727D01*
X27357696Y-73621561D01*
X31096000Y-73621561D01*
X31096000Y-73825439D01*
X31135774Y-74025398D01*
X31213795Y-74213756D01*
X31327063Y-74383274D01*
X31471226Y-74527437D01*
X31640744Y-74640705D01*
X31829102Y-74718726D01*
X32029061Y-74758500D01*
X32232939Y-74758500D01*
X32432898Y-74718726D01*
X32621256Y-74640705D01*
X32790774Y-74527437D01*
X32934937Y-74383274D01*
X33048205Y-74213756D01*
X33126226Y-74025398D01*
X33136130Y-73975605D01*
X41008236Y-66103500D01*
X273279532Y-66103500D01*
X273321744Y-66131705D01*
X273510102Y-66209726D01*
X273710061Y-66249500D01*
X273913939Y-66249500D01*
X274113898Y-66209726D01*
X274302256Y-66131705D01*
X274471774Y-66018437D01*
X274615937Y-65874274D01*
X274729205Y-65704756D01*
X274807226Y-65516398D01*
X274847000Y-65316439D01*
X274847000Y-65112561D01*
X274807226Y-64912602D01*
X274729205Y-64724244D01*
X274615937Y-64554726D01*
X274471774Y-64410563D01*
X274302256Y-64297295D01*
X274113898Y-64219274D01*
X273913939Y-64179500D01*
X273710061Y-64179500D01*
X273510102Y-64219274D01*
X273321744Y-64297295D01*
X273279532Y-64325500D01*
X40683659Y-64325500D01*
X40639999Y-64321200D01*
X40596339Y-64325500D01*
X40596333Y-64325500D01*
X40498924Y-64335094D01*
X40465724Y-64338364D01*
X40364058Y-64369204D01*
X40298149Y-64389197D01*
X40143709Y-64471747D01*
X40008341Y-64582841D01*
X39980506Y-64616758D01*
X31878895Y-72718370D01*
X31829102Y-72728274D01*
X31640744Y-72806295D01*
X31471226Y-72919563D01*
X31327063Y-73063726D01*
X31213795Y-73233244D01*
X31135774Y-73421602D01*
X31096000Y-73621561D01*
X27357696Y-73621561D01*
X27414853Y-73483574D01*
X27470000Y-73206335D01*
X27470000Y-72923665D01*
X27414853Y-72646426D01*
X27306680Y-72385273D01*
X27149637Y-72150241D01*
X26949759Y-71950363D01*
X26714727Y-71793320D01*
X26453574Y-71685147D01*
X26176335Y-71630000D01*
X25893665Y-71630000D01*
X25616426Y-71685147D01*
X25355273Y-71793320D01*
X25120241Y-71950363D01*
X24920363Y-72150241D01*
X24763320Y-72385273D01*
X24655147Y-72646426D01*
X24600000Y-72923665D01*
X24600000Y-73206335D01*
X24655147Y-73483574D01*
X24763320Y-73744727D01*
X24920363Y-73979759D01*
X25086943Y-74146339D01*
X24990820Y-74175498D01*
X24880506Y-74234463D01*
X24783815Y-74313815D01*
X24704463Y-74410506D01*
X24645498Y-74520820D01*
X24609188Y-74640518D01*
X24596928Y-74765000D01*
X21615000Y-74765000D01*
X21615000Y-64326840D01*
X23376292Y-66088133D01*
X23408104Y-66126896D01*
X23562810Y-66253860D01*
X23739313Y-66348202D01*
X23872732Y-66388674D01*
X23930828Y-66406298D01*
X23942657Y-66407463D01*
X24080098Y-66421000D01*
X24080105Y-66421000D01*
X24129999Y-66425914D01*
X24179893Y-66421000D01*
X24627202Y-66421000D01*
X24687337Y-66510998D01*
X24851339Y-66675000D01*
X24687337Y-66839002D01*
X24497463Y-67123169D01*
X24366675Y-67438919D01*
X24300000Y-67774117D01*
X24300000Y-68115883D01*
X24366675Y-68451081D01*
X24497463Y-68766831D01*
X24687337Y-69050998D01*
X24929002Y-69292663D01*
X25213169Y-69482537D01*
X25528919Y-69613325D01*
X25864117Y-69680000D01*
X26205883Y-69680000D01*
X26541081Y-69613325D01*
X26856831Y-69482537D01*
X27140998Y-69292663D01*
X27382663Y-69050998D01*
X27572537Y-68766831D01*
X27703325Y-68451081D01*
X27761112Y-68160561D01*
X31096000Y-68160561D01*
X31096000Y-68364439D01*
X31135774Y-68564398D01*
X31213795Y-68752756D01*
X31327063Y-68922274D01*
X31471226Y-69066437D01*
X31640744Y-69179705D01*
X31829102Y-69257726D01*
X32029061Y-69297500D01*
X32232939Y-69297500D01*
X32432898Y-69257726D01*
X32621256Y-69179705D01*
X32790774Y-69066437D01*
X32934937Y-68922274D01*
X33048205Y-68752756D01*
X33126226Y-68564398D01*
X33136130Y-68514605D01*
X41008236Y-60642500D01*
X273279532Y-60642500D01*
X273321744Y-60670705D01*
X273510102Y-60748726D01*
X273710061Y-60788500D01*
X273913939Y-60788500D01*
X274113898Y-60748726D01*
X274302256Y-60670705D01*
X274471774Y-60557437D01*
X274615937Y-60413274D01*
X274729205Y-60243756D01*
X274807226Y-60055398D01*
X274847000Y-59855439D01*
X274847000Y-59651561D01*
X274807226Y-59451602D01*
X274729205Y-59263244D01*
X274615937Y-59093726D01*
X274471774Y-58949563D01*
X274302256Y-58836295D01*
X274113898Y-58758274D01*
X273913939Y-58718500D01*
X273710061Y-58718500D01*
X273510102Y-58758274D01*
X273321744Y-58836295D01*
X273279532Y-58864500D01*
X40683659Y-58864500D01*
X40639999Y-58860200D01*
X40596339Y-58864500D01*
X40596333Y-58864500D01*
X40498924Y-58874094D01*
X40465724Y-58877364D01*
X40364058Y-58908204D01*
X40298149Y-58928197D01*
X40143709Y-59010747D01*
X40008341Y-59121841D01*
X39980506Y-59155758D01*
X31878895Y-67257370D01*
X31829102Y-67267274D01*
X31640744Y-67345295D01*
X31471226Y-67458563D01*
X31327063Y-67602726D01*
X31213795Y-67772244D01*
X31135774Y-67960602D01*
X31096000Y-68160561D01*
X27761112Y-68160561D01*
X27770000Y-68115883D01*
X27770000Y-67774117D01*
X27703325Y-67438919D01*
X27572537Y-67123169D01*
X27382663Y-66839002D01*
X27218661Y-66675000D01*
X27382663Y-66510998D01*
X27572537Y-66226831D01*
X27703325Y-65911081D01*
X27770000Y-65575883D01*
X27770000Y-65234117D01*
X27703325Y-64898919D01*
X27572537Y-64583169D01*
X27382663Y-64299002D01*
X27218661Y-64135000D01*
X27382663Y-63970998D01*
X27572537Y-63686831D01*
X27703325Y-63371081D01*
X27770000Y-63035883D01*
X27770000Y-62699561D01*
X31096000Y-62699561D01*
X31096000Y-62903439D01*
X31135774Y-63103398D01*
X31213795Y-63291756D01*
X31327063Y-63461274D01*
X31471226Y-63605437D01*
X31640744Y-63718705D01*
X31829102Y-63796726D01*
X32029061Y-63836500D01*
X32232939Y-63836500D01*
X32432898Y-63796726D01*
X32621256Y-63718705D01*
X32790774Y-63605437D01*
X32934937Y-63461274D01*
X33048205Y-63291756D01*
X33126226Y-63103398D01*
X33136130Y-63053605D01*
X41008236Y-55181500D01*
X273279532Y-55181500D01*
X273321744Y-55209705D01*
X273510102Y-55287726D01*
X273710061Y-55327500D01*
X273913939Y-55327500D01*
X274113898Y-55287726D01*
X274302256Y-55209705D01*
X274471774Y-55096437D01*
X274615937Y-54952274D01*
X274729205Y-54782756D01*
X274807226Y-54594398D01*
X274847000Y-54394439D01*
X274847000Y-54190561D01*
X274807226Y-53990602D01*
X274729205Y-53802244D01*
X274615937Y-53632726D01*
X274471774Y-53488563D01*
X274302256Y-53375295D01*
X274113898Y-53297274D01*
X273913939Y-53257500D01*
X273710061Y-53257500D01*
X273510102Y-53297274D01*
X273321744Y-53375295D01*
X273279532Y-53403500D01*
X40683659Y-53403500D01*
X40639999Y-53399200D01*
X40596339Y-53403500D01*
X40596333Y-53403500D01*
X40498924Y-53413094D01*
X40465724Y-53416364D01*
X40364058Y-53447204D01*
X40298149Y-53467197D01*
X40143709Y-53549747D01*
X40008341Y-53660841D01*
X39980506Y-53694758D01*
X31878895Y-61796370D01*
X31829102Y-61806274D01*
X31640744Y-61884295D01*
X31471226Y-61997563D01*
X31327063Y-62141726D01*
X31213795Y-62311244D01*
X31135774Y-62499602D01*
X31096000Y-62699561D01*
X27770000Y-62699561D01*
X27770000Y-62694117D01*
X27703325Y-62358919D01*
X27572537Y-62043169D01*
X27505310Y-61942557D01*
X27586185Y-61876185D01*
X27665537Y-61779494D01*
X27724502Y-61669180D01*
X27760812Y-61549482D01*
X27773072Y-61425000D01*
X27770000Y-60610750D01*
X27611250Y-60452000D01*
X26162000Y-60452000D01*
X26162000Y-60472000D01*
X25908000Y-60472000D01*
X25908000Y-60452000D01*
X24458750Y-60452000D01*
X24300000Y-60610750D01*
X24296928Y-61425000D01*
X24309188Y-61549482D01*
X24345498Y-61669180D01*
X24404463Y-61779494D01*
X24483815Y-61876185D01*
X24564690Y-61942557D01*
X24497463Y-62043169D01*
X24366675Y-62358919D01*
X24300000Y-62694117D01*
X24300000Y-63035883D01*
X24366675Y-63371081D01*
X24497463Y-63686831D01*
X24687337Y-63970998D01*
X24851339Y-64135000D01*
X24687337Y-64299002D01*
X24627202Y-64389000D01*
X24550841Y-64389000D01*
X22606000Y-62444160D01*
X22606000Y-59225000D01*
X24296928Y-59225000D01*
X24300000Y-60039250D01*
X24458750Y-60198000D01*
X25908000Y-60198000D01*
X25908000Y-58748750D01*
X26162000Y-58748750D01*
X26162000Y-60198000D01*
X27611250Y-60198000D01*
X27770000Y-60039250D01*
X27773072Y-59225000D01*
X27760812Y-59100518D01*
X27724502Y-58980820D01*
X27665537Y-58870506D01*
X27586185Y-58773815D01*
X27489494Y-58694463D01*
X27379180Y-58635498D01*
X27259482Y-58599188D01*
X27135000Y-58586928D01*
X26320750Y-58590000D01*
X26162000Y-58748750D01*
X25908000Y-58748750D01*
X25749250Y-58590000D01*
X24935000Y-58586928D01*
X24810518Y-58599188D01*
X24690820Y-58635498D01*
X24580506Y-58694463D01*
X24483815Y-58773815D01*
X24404463Y-58870506D01*
X24345498Y-58980820D01*
X24309188Y-59100518D01*
X24296928Y-59225000D01*
X22606000Y-59225000D01*
X22606000Y-57111561D01*
X31096000Y-57111561D01*
X31096000Y-57315439D01*
X31135774Y-57515398D01*
X31213795Y-57703756D01*
X31327063Y-57873274D01*
X31471226Y-58017437D01*
X31640744Y-58130705D01*
X31829102Y-58208726D01*
X32029061Y-58248500D01*
X32232939Y-58248500D01*
X32432898Y-58208726D01*
X32621256Y-58130705D01*
X32790774Y-58017437D01*
X32934937Y-57873274D01*
X33048205Y-57703756D01*
X33126226Y-57515398D01*
X33136130Y-57465605D01*
X41008236Y-49593500D01*
X273279532Y-49593500D01*
X273321744Y-49621705D01*
X273510102Y-49699726D01*
X273710061Y-49739500D01*
X273913939Y-49739500D01*
X274113898Y-49699726D01*
X274302256Y-49621705D01*
X274471774Y-49508437D01*
X274615937Y-49364274D01*
X274729205Y-49194756D01*
X274807226Y-49006398D01*
X274847000Y-48806439D01*
X274847000Y-48602561D01*
X274807226Y-48402602D01*
X274729205Y-48214244D01*
X274615937Y-48044726D01*
X274471774Y-47900563D01*
X274302256Y-47787295D01*
X274113898Y-47709274D01*
X273913939Y-47669500D01*
X273710061Y-47669500D01*
X273510102Y-47709274D01*
X273321744Y-47787295D01*
X273279532Y-47815500D01*
X40683659Y-47815500D01*
X40639999Y-47811200D01*
X40596339Y-47815500D01*
X40596333Y-47815500D01*
X40498924Y-47825094D01*
X40465724Y-47828364D01*
X40364058Y-47859204D01*
X40298149Y-47879197D01*
X40143709Y-47961747D01*
X40008341Y-48072841D01*
X39980506Y-48106758D01*
X31878895Y-56208370D01*
X31829102Y-56218274D01*
X31640744Y-56296295D01*
X31471226Y-56409563D01*
X31327063Y-56553726D01*
X31213795Y-56723244D01*
X31135774Y-56911602D01*
X31096000Y-57111561D01*
X22606000Y-57111561D01*
X22606000Y-51650561D01*
X31159500Y-51650561D01*
X31159500Y-51854439D01*
X31199274Y-52054398D01*
X31277295Y-52242756D01*
X31390563Y-52412274D01*
X31534726Y-52556437D01*
X31704244Y-52669705D01*
X31892602Y-52747726D01*
X32092561Y-52787500D01*
X32296439Y-52787500D01*
X32496398Y-52747726D01*
X32684756Y-52669705D01*
X32854274Y-52556437D01*
X32998437Y-52412274D01*
X33111705Y-52242756D01*
X33189726Y-52054398D01*
X33199630Y-52004605D01*
X41071736Y-44132500D01*
X273343032Y-44132500D01*
X273385244Y-44160705D01*
X273573602Y-44238726D01*
X273773561Y-44278500D01*
X273977439Y-44278500D01*
X274177398Y-44238726D01*
X274365756Y-44160705D01*
X274535274Y-44047437D01*
X274679437Y-43903274D01*
X274792705Y-43733756D01*
X274870726Y-43545398D01*
X274910500Y-43345439D01*
X274910500Y-43141561D01*
X274870726Y-42941602D01*
X274792705Y-42753244D01*
X274679437Y-42583726D01*
X274535274Y-42439563D01*
X274365756Y-42326295D01*
X274177398Y-42248274D01*
X273977439Y-42208500D01*
X273773561Y-42208500D01*
X273573602Y-42248274D01*
X273385244Y-42326295D01*
X273343032Y-42354500D01*
X40747159Y-42354500D01*
X40703499Y-42350200D01*
X40659839Y-42354500D01*
X40659833Y-42354500D01*
X40562424Y-42364094D01*
X40529224Y-42367364D01*
X40464269Y-42387068D01*
X40361649Y-42418197D01*
X40207209Y-42500747D01*
X40071841Y-42611841D01*
X40044006Y-42645758D01*
X31942395Y-50747370D01*
X31892602Y-50757274D01*
X31704244Y-50835295D01*
X31534726Y-50948563D01*
X31390563Y-51092726D01*
X31277295Y-51262244D01*
X31199274Y-51450602D01*
X31159500Y-51650561D01*
X22606000Y-51650561D01*
X22606000Y-47205000D01*
X25816928Y-47205000D01*
X25829188Y-47329482D01*
X25865498Y-47449180D01*
X25924463Y-47559494D01*
X26003815Y-47656185D01*
X26100506Y-47735537D01*
X26210820Y-47794502D01*
X26330518Y-47830812D01*
X26455000Y-47843072D01*
X27019250Y-47840000D01*
X27178000Y-47681250D01*
X27178000Y-46482000D01*
X27432000Y-46482000D01*
X27432000Y-47681250D01*
X27590750Y-47840000D01*
X28155000Y-47843072D01*
X28279482Y-47830812D01*
X28399180Y-47794502D01*
X28509494Y-47735537D01*
X28606185Y-47656185D01*
X28685537Y-47559494D01*
X28744502Y-47449180D01*
X28780812Y-47329482D01*
X28793072Y-47205000D01*
X28790000Y-46640750D01*
X28631250Y-46482000D01*
X27432000Y-46482000D01*
X27178000Y-46482000D01*
X25978750Y-46482000D01*
X25820000Y-46640750D01*
X25816928Y-47205000D01*
X22606000Y-47205000D01*
X22606000Y-44235840D01*
X24550841Y-42291000D01*
X26220893Y-42291000D01*
X26358368Y-42428475D01*
X26532760Y-42545000D01*
X26358368Y-42661525D01*
X26151525Y-42868368D01*
X25989010Y-43111589D01*
X25877068Y-43381842D01*
X25820000Y-43668740D01*
X25820000Y-43961260D01*
X25877068Y-44248158D01*
X25989010Y-44518411D01*
X26151525Y-44761632D01*
X26283380Y-44893487D01*
X26210820Y-44915498D01*
X26100506Y-44974463D01*
X26003815Y-45053815D01*
X25924463Y-45150506D01*
X25865498Y-45260820D01*
X25829188Y-45380518D01*
X25816928Y-45505000D01*
X25820000Y-46069250D01*
X25978750Y-46228000D01*
X27178000Y-46228000D01*
X27178000Y-46208000D01*
X27432000Y-46208000D01*
X27432000Y-46228000D01*
X28631250Y-46228000D01*
X28669689Y-46189561D01*
X31096000Y-46189561D01*
X31096000Y-46393439D01*
X31135774Y-46593398D01*
X31213795Y-46781756D01*
X31327063Y-46951274D01*
X31471226Y-47095437D01*
X31640744Y-47208705D01*
X31829102Y-47286726D01*
X32029061Y-47326500D01*
X32232939Y-47326500D01*
X32432898Y-47286726D01*
X32621256Y-47208705D01*
X32790774Y-47095437D01*
X32934937Y-46951274D01*
X33048205Y-46781756D01*
X33126226Y-46593398D01*
X33136130Y-46543605D01*
X41008236Y-38671500D01*
X273279532Y-38671500D01*
X273321744Y-38699705D01*
X273510102Y-38777726D01*
X273710061Y-38817500D01*
X273913939Y-38817500D01*
X274113898Y-38777726D01*
X274302256Y-38699705D01*
X274471774Y-38586437D01*
X274615937Y-38442274D01*
X274729205Y-38272756D01*
X274807226Y-38084398D01*
X274847000Y-37884439D01*
X274847000Y-37680561D01*
X274807226Y-37480602D01*
X274729205Y-37292244D01*
X274615937Y-37122726D01*
X274471774Y-36978563D01*
X274302256Y-36865295D01*
X274113898Y-36787274D01*
X273913939Y-36747500D01*
X273710061Y-36747500D01*
X273510102Y-36787274D01*
X273321744Y-36865295D01*
X273279532Y-36893500D01*
X40683659Y-36893500D01*
X40639999Y-36889200D01*
X40596339Y-36893500D01*
X40596333Y-36893500D01*
X40498924Y-36903094D01*
X40465724Y-36906364D01*
X40364058Y-36937204D01*
X40298149Y-36957197D01*
X40143709Y-37039747D01*
X40008341Y-37150841D01*
X39980506Y-37184758D01*
X31878895Y-45286370D01*
X31829102Y-45296274D01*
X31640744Y-45374295D01*
X31471226Y-45487563D01*
X31327063Y-45631726D01*
X31213795Y-45801244D01*
X31135774Y-45989602D01*
X31096000Y-46189561D01*
X28669689Y-46189561D01*
X28790000Y-46069250D01*
X28793072Y-45505000D01*
X28780812Y-45380518D01*
X28744502Y-45260820D01*
X28685537Y-45150506D01*
X28606185Y-45053815D01*
X28509494Y-44974463D01*
X28399180Y-44915498D01*
X28326620Y-44893487D01*
X28458475Y-44761632D01*
X28620990Y-44518411D01*
X28732932Y-44248158D01*
X28790000Y-43961260D01*
X28790000Y-43668740D01*
X28732932Y-43381842D01*
X28620990Y-43111589D01*
X28458475Y-42868368D01*
X28251632Y-42661525D01*
X28077240Y-42545000D01*
X28251632Y-42428475D01*
X28458475Y-42221632D01*
X28620990Y-41978411D01*
X28732932Y-41708158D01*
X28790000Y-41421260D01*
X28790000Y-41128740D01*
X28732932Y-40841842D01*
X28633405Y-40601561D01*
X31096000Y-40601561D01*
X31096000Y-40805439D01*
X31135774Y-41005398D01*
X31213795Y-41193756D01*
X31327063Y-41363274D01*
X31471226Y-41507437D01*
X31640744Y-41620705D01*
X31829102Y-41698726D01*
X32029061Y-41738500D01*
X32232939Y-41738500D01*
X32432898Y-41698726D01*
X32621256Y-41620705D01*
X32790774Y-41507437D01*
X32934937Y-41363274D01*
X33048205Y-41193756D01*
X33126226Y-41005398D01*
X33136130Y-40955605D01*
X41008236Y-33083500D01*
X273279532Y-33083500D01*
X273321744Y-33111705D01*
X273510102Y-33189726D01*
X273710061Y-33229500D01*
X273913939Y-33229500D01*
X274113898Y-33189726D01*
X274302256Y-33111705D01*
X274471774Y-32998437D01*
X274615937Y-32854274D01*
X274729205Y-32684756D01*
X274807226Y-32496398D01*
X274847000Y-32296439D01*
X274847000Y-32092561D01*
X274807226Y-31892602D01*
X274729205Y-31704244D01*
X274615937Y-31534726D01*
X274471774Y-31390563D01*
X274302256Y-31277295D01*
X274113898Y-31199274D01*
X273913939Y-31159500D01*
X273710061Y-31159500D01*
X273510102Y-31199274D01*
X273321744Y-31277295D01*
X273279532Y-31305500D01*
X40683659Y-31305500D01*
X40639999Y-31301200D01*
X40596339Y-31305500D01*
X40596333Y-31305500D01*
X40498924Y-31315094D01*
X40465724Y-31318364D01*
X40364058Y-31349204D01*
X40298149Y-31369197D01*
X40143709Y-31451747D01*
X40008341Y-31562841D01*
X39980506Y-31596758D01*
X31878895Y-39698370D01*
X31829102Y-39708274D01*
X31640744Y-39786295D01*
X31471226Y-39899563D01*
X31327063Y-40043726D01*
X31213795Y-40213244D01*
X31135774Y-40401602D01*
X31096000Y-40601561D01*
X28633405Y-40601561D01*
X28620990Y-40571589D01*
X28458475Y-40328368D01*
X28251632Y-40121525D01*
X28077240Y-40005000D01*
X28251632Y-39888475D01*
X28458475Y-39681632D01*
X28620990Y-39438411D01*
X28732932Y-39168158D01*
X28790000Y-38881260D01*
X28790000Y-38588740D01*
X28732932Y-38301842D01*
X28620990Y-38031589D01*
X28458475Y-37788368D01*
X28251632Y-37581525D01*
X28008411Y-37419010D01*
X27738158Y-37307068D01*
X27451260Y-37250000D01*
X27158740Y-37250000D01*
X26871842Y-37307068D01*
X26601589Y-37419010D01*
X26358368Y-37581525D01*
X26151525Y-37788368D01*
X25989010Y-38031589D01*
X25877068Y-38301842D01*
X25820000Y-38588740D01*
X25820000Y-38881260D01*
X25877068Y-39168158D01*
X25989010Y-39438411D01*
X26151525Y-39681632D01*
X26358368Y-39888475D01*
X26532760Y-40005000D01*
X26358368Y-40121525D01*
X26220893Y-40259000D01*
X24179893Y-40259000D01*
X24129999Y-40254086D01*
X24080105Y-40259000D01*
X24080098Y-40259000D01*
X23950177Y-40271796D01*
X23930828Y-40273702D01*
X23872732Y-40291326D01*
X23739313Y-40331798D01*
X23562810Y-40426140D01*
X23408104Y-40553104D01*
X23376292Y-40591867D01*
X21615000Y-42353160D01*
X21615000Y-29786344D01*
X21737000Y-29786344D01*
X21737000Y-30157656D01*
X21809439Y-30521834D01*
X21951534Y-30864882D01*
X22157825Y-31173618D01*
X22420382Y-31436175D01*
X22729118Y-31642466D01*
X23072166Y-31784561D01*
X23436344Y-31857000D01*
X23807656Y-31857000D01*
X24171834Y-31784561D01*
X24514882Y-31642466D01*
X24823618Y-31436175D01*
X25086175Y-31173618D01*
X25292466Y-30864882D01*
X25434561Y-30521834D01*
X25507000Y-30157656D01*
X25507000Y-29913344D01*
X276626000Y-29913344D01*
X276626000Y-30284656D01*
X276698439Y-30648834D01*
X276840534Y-30991882D01*
X277046825Y-31300618D01*
X277309382Y-31563175D01*
X277618118Y-31769466D01*
X277961166Y-31911561D01*
X278325344Y-31984000D01*
X278696656Y-31984000D01*
X279060834Y-31911561D01*
X279403882Y-31769466D01*
X279712618Y-31563175D01*
X279975175Y-31300618D01*
X280181466Y-30991882D01*
X280323561Y-30648834D01*
X280396000Y-30284656D01*
X280396000Y-29913344D01*
X280323561Y-29549166D01*
X280181466Y-29206118D01*
X279975175Y-28897382D01*
X279712618Y-28634825D01*
X279403882Y-28428534D01*
X279060834Y-28286439D01*
X278696656Y-28214000D01*
X278325344Y-28214000D01*
X277961166Y-28286439D01*
X277618118Y-28428534D01*
X277309382Y-28634825D01*
X277046825Y-28897382D01*
X276840534Y-29206118D01*
X276698439Y-29549166D01*
X276626000Y-29913344D01*
X25507000Y-29913344D01*
X25507000Y-29786344D01*
X25434561Y-29422166D01*
X25292466Y-29079118D01*
X25086175Y-28770382D01*
X24823618Y-28507825D01*
X24514882Y-28301534D01*
X24171834Y-28159439D01*
X23807656Y-28087000D01*
X23436344Y-28087000D01*
X23072166Y-28159439D01*
X22729118Y-28301534D01*
X22420382Y-28507825D01*
X22157825Y-28770382D01*
X21951534Y-29079118D01*
X21809439Y-29422166D01*
X21737000Y-29786344D01*
X21615000Y-29786344D01*
X21615000Y-27965000D01*
X280645000Y-27965000D01*
X280645001Y-123165000D01*
G37*
X280645001Y-123165000D02*
X21615000Y-123165000D01*
X21615000Y-120972344D01*
X21737000Y-120972344D01*
X21737000Y-121343656D01*
X21809439Y-121707834D01*
X21951534Y-122050882D01*
X22157825Y-122359618D01*
X22420382Y-122622175D01*
X22729118Y-122828466D01*
X23072166Y-122970561D01*
X23436344Y-123043000D01*
X23807656Y-123043000D01*
X24171834Y-122970561D01*
X24514882Y-122828466D01*
X24823618Y-122622175D01*
X25086175Y-122359618D01*
X25292466Y-122050882D01*
X25434561Y-121707834D01*
X25507000Y-121343656D01*
X25507000Y-120972344D01*
X276753000Y-120972344D01*
X276753000Y-121343656D01*
X276825439Y-121707834D01*
X276967534Y-122050882D01*
X277173825Y-122359618D01*
X277436382Y-122622175D01*
X277745118Y-122828466D01*
X278088166Y-122970561D01*
X278452344Y-123043000D01*
X278823656Y-123043000D01*
X279187834Y-122970561D01*
X279530882Y-122828466D01*
X279839618Y-122622175D01*
X280102175Y-122359618D01*
X280308466Y-122050882D01*
X280450561Y-121707834D01*
X280523000Y-121343656D01*
X280523000Y-120972344D01*
X280450561Y-120608166D01*
X280308466Y-120265118D01*
X280102175Y-119956382D01*
X279839618Y-119693825D01*
X279530882Y-119487534D01*
X279187834Y-119345439D01*
X278823656Y-119273000D01*
X278452344Y-119273000D01*
X278088166Y-119345439D01*
X277745118Y-119487534D01*
X277436382Y-119693825D01*
X277173825Y-119956382D01*
X276967534Y-120265118D01*
X276825439Y-120608166D01*
X276753000Y-120972344D01*
X25507000Y-120972344D01*
X25434561Y-120608166D01*
X25292466Y-120265118D01*
X25086175Y-119956382D01*
X24823618Y-119693825D01*
X24514882Y-119487534D01*
X24171834Y-119345439D01*
X23807656Y-119273000D01*
X23436344Y-119273000D01*
X23072166Y-119345439D01*
X22729118Y-119487534D01*
X22420382Y-119693825D01*
X22157825Y-119956382D01*
X21951534Y-120265118D01*
X21809439Y-120608166D01*
X21737000Y-120972344D01*
X21615000Y-120972344D01*
X21615000Y-117373061D01*
X31223000Y-117373061D01*
X31223000Y-117576939D01*
X31262774Y-117776898D01*
X31340795Y-117965256D01*
X31454063Y-118134774D01*
X31598226Y-118278937D01*
X31767744Y-118392205D01*
X31956102Y-118470226D01*
X32156061Y-118510000D01*
X32359939Y-118510000D01*
X32559898Y-118470226D01*
X32748256Y-118392205D01*
X32917774Y-118278937D01*
X33061937Y-118134774D01*
X33175205Y-117965256D01*
X33253226Y-117776898D01*
X33263130Y-117727105D01*
X41135236Y-109855000D01*
X273406532Y-109855000D01*
X273448744Y-109883205D01*
X273637102Y-109961226D01*
X273837061Y-110001000D01*
X274040939Y-110001000D01*
X274240898Y-109961226D01*
X274429256Y-109883205D01*
X274598774Y-109769937D01*
X274742937Y-109625774D01*
X274743120Y-109625500D01*
X276451428Y-109625500D01*
X276463688Y-109749982D01*
X276499998Y-109869680D01*
X276558963Y-109979994D01*
X276638315Y-110076685D01*
X276735006Y-110156037D01*
X276845320Y-110215002D01*
X276917880Y-110237013D01*
X276786025Y-110368868D01*
X276623510Y-110612089D01*
X276511568Y-110882342D01*
X276454500Y-111169240D01*
X276454500Y-111461760D01*
X276511568Y-111748658D01*
X276623510Y-112018911D01*
X276786025Y-112262132D01*
X276992868Y-112468975D01*
X277167260Y-112585500D01*
X276992868Y-112702025D01*
X276786025Y-112908868D01*
X276623510Y-113152089D01*
X276511568Y-113422342D01*
X276454500Y-113709240D01*
X276454500Y-114001760D01*
X276511568Y-114288658D01*
X276623510Y-114558911D01*
X276786025Y-114802132D01*
X276992868Y-115008975D01*
X277167260Y-115125500D01*
X276992868Y-115242025D01*
X276786025Y-115448868D01*
X276623510Y-115692089D01*
X276511568Y-115962342D01*
X276454500Y-116249240D01*
X276454500Y-116541760D01*
X276511568Y-116828658D01*
X276623510Y-117098911D01*
X276786025Y-117342132D01*
X276992868Y-117548975D01*
X277236089Y-117711490D01*
X277506342Y-117823432D01*
X277793240Y-117880500D01*
X278085760Y-117880500D01*
X278372658Y-117823432D01*
X278642911Y-117711490D01*
X278886132Y-117548975D01*
X279092975Y-117342132D01*
X279255490Y-117098911D01*
X279367432Y-116828658D01*
X279424500Y-116541760D01*
X279424500Y-116249240D01*
X279367432Y-115962342D01*
X279255490Y-115692089D01*
X279092975Y-115448868D01*
X278886132Y-115242025D01*
X278711740Y-115125500D01*
X278886132Y-115008975D01*
X279092975Y-114802132D01*
X279255490Y-114558911D01*
X279367432Y-114288658D01*
X279424500Y-114001760D01*
X279424500Y-113709240D01*
X279367432Y-113422342D01*
X279255490Y-113152089D01*
X279092975Y-112908868D01*
X278886132Y-112702025D01*
X278711740Y-112585500D01*
X278886132Y-112468975D01*
X279092975Y-112262132D01*
X279255490Y-112018911D01*
X279367432Y-111748658D01*
X279424500Y-111461760D01*
X279424500Y-111169240D01*
X279367432Y-110882342D01*
X279255490Y-110612089D01*
X279092975Y-110368868D01*
X278961120Y-110237013D01*
X279033680Y-110215002D01*
X279143994Y-110156037D01*
X279240685Y-110076685D01*
X279320037Y-109979994D01*
X279379002Y-109869680D01*
X279415312Y-109749982D01*
X279427572Y-109625500D01*
X279424500Y-109061250D01*
X279265750Y-108902500D01*
X278066500Y-108902500D01*
X278066500Y-108922500D01*
X277812500Y-108922500D01*
X277812500Y-108902500D01*
X276613250Y-108902500D01*
X276454500Y-109061250D01*
X276451428Y-109625500D01*
X274743120Y-109625500D01*
X274856205Y-109456256D01*
X274934226Y-109267898D01*
X274974000Y-109067939D01*
X274974000Y-108864061D01*
X274934226Y-108664102D01*
X274856205Y-108475744D01*
X274742937Y-108306226D01*
X274598774Y-108162063D01*
X274429256Y-108048795D01*
X274240898Y-107970774D01*
X274040939Y-107931000D01*
X273837061Y-107931000D01*
X273637102Y-107970774D01*
X273448744Y-108048795D01*
X273406532Y-108077000D01*
X40810659Y-108077000D01*
X40766999Y-108072700D01*
X40723339Y-108077000D01*
X40723333Y-108077000D01*
X40625924Y-108086594D01*
X40592724Y-108089864D01*
X40491058Y-108120704D01*
X40425149Y-108140697D01*
X40270709Y-108223247D01*
X40135341Y-108334341D01*
X40107506Y-108368258D01*
X32005895Y-116469870D01*
X31956102Y-116479774D01*
X31767744Y-116557795D01*
X31598226Y-116671063D01*
X31454063Y-116815226D01*
X31340795Y-116984744D01*
X31262774Y-117173102D01*
X31223000Y-117373061D01*
X21615000Y-117373061D01*
X21615000Y-111912061D01*
X31223000Y-111912061D01*
X31223000Y-112115939D01*
X31262774Y-112315898D01*
X31340795Y-112504256D01*
X31454063Y-112673774D01*
X31598226Y-112817937D01*
X31767744Y-112931205D01*
X31956102Y-113009226D01*
X32156061Y-113049000D01*
X32359939Y-113049000D01*
X32559898Y-113009226D01*
X32748256Y-112931205D01*
X32917774Y-112817937D01*
X33061937Y-112673774D01*
X33175205Y-112504256D01*
X33253226Y-112315898D01*
X33263130Y-112266105D01*
X37603735Y-107925500D01*
X276451428Y-107925500D01*
X276454500Y-108489750D01*
X276613250Y-108648500D01*
X277812500Y-108648500D01*
X277812500Y-107449250D01*
X278066500Y-107449250D01*
X278066500Y-108648500D01*
X279265750Y-108648500D01*
X279424500Y-108489750D01*
X279427572Y-107925500D01*
X279415312Y-107801018D01*
X279379002Y-107681320D01*
X279320037Y-107571006D01*
X279240685Y-107474315D01*
X279143994Y-107394963D01*
X279033680Y-107335998D01*
X278913982Y-107299688D01*
X278789500Y-107287428D01*
X278225250Y-107290500D01*
X278066500Y-107449250D01*
X277812500Y-107449250D01*
X277653750Y-107290500D01*
X277089500Y-107287428D01*
X276965018Y-107299688D01*
X276845320Y-107335998D01*
X276735006Y-107394963D01*
X276638315Y-107474315D01*
X276558963Y-107571006D01*
X276499998Y-107681320D01*
X276463688Y-107801018D01*
X276451428Y-107925500D01*
X37603735Y-107925500D01*
X41198736Y-104330500D01*
X273406532Y-104330500D01*
X273448744Y-104358705D01*
X273637102Y-104436726D01*
X273837061Y-104476500D01*
X274040939Y-104476500D01*
X274240898Y-104436726D01*
X274429256Y-104358705D01*
X274598774Y-104245437D01*
X274742937Y-104101274D01*
X274856205Y-103931756D01*
X274934226Y-103743398D01*
X274974000Y-103543439D01*
X274974000Y-103339561D01*
X274934226Y-103139602D01*
X274856205Y-102951244D01*
X274742937Y-102781726D01*
X274598774Y-102637563D01*
X274429256Y-102524295D01*
X274240898Y-102446274D01*
X274040939Y-102406500D01*
X273837061Y-102406500D01*
X273637102Y-102446274D01*
X273448744Y-102524295D01*
X273406532Y-102552500D01*
X40874160Y-102552500D01*
X40830500Y-102548200D01*
X40786840Y-102552500D01*
X40786833Y-102552500D01*
X40672825Y-102563729D01*
X40656225Y-102565364D01*
X40583258Y-102587498D01*
X40488649Y-102616197D01*
X40334209Y-102698747D01*
X40198841Y-102809841D01*
X40171006Y-102843758D01*
X32005895Y-111008870D01*
X31956102Y-111018774D01*
X31767744Y-111096795D01*
X31598226Y-111210063D01*
X31454063Y-111354226D01*
X31340795Y-111523744D01*
X31262774Y-111712102D01*
X31223000Y-111912061D01*
X21615000Y-111912061D01*
X21615000Y-106451061D01*
X31032500Y-106451061D01*
X31032500Y-106654939D01*
X31072274Y-106854898D01*
X31150295Y-107043256D01*
X31263563Y-107212774D01*
X31407726Y-107356937D01*
X31577244Y-107470205D01*
X31765602Y-107548226D01*
X31965561Y-107588000D01*
X32169439Y-107588000D01*
X32369398Y-107548226D01*
X32557756Y-107470205D01*
X32727274Y-107356937D01*
X32871437Y-107212774D01*
X32984705Y-107043256D01*
X33062726Y-106854898D01*
X33072630Y-106805105D01*
X40944736Y-98933000D01*
X273216032Y-98933000D01*
X273258244Y-98961205D01*
X273446602Y-99039226D01*
X273646561Y-99079000D01*
X273850439Y-99079000D01*
X274050398Y-99039226D01*
X274238756Y-98961205D01*
X274408274Y-98847937D01*
X274552437Y-98703774D01*
X274665705Y-98534256D01*
X274743726Y-98345898D01*
X274783500Y-98145939D01*
X274783500Y-97942061D01*
X274743726Y-97742102D01*
X274665705Y-97553744D01*
X274552437Y-97384226D01*
X274408274Y-97240063D01*
X274238756Y-97126795D01*
X274050398Y-97048774D01*
X273850439Y-97009000D01*
X273646561Y-97009000D01*
X273446602Y-97048774D01*
X273258244Y-97126795D01*
X273216032Y-97155000D01*
X40620159Y-97155000D01*
X40576499Y-97150700D01*
X40532839Y-97155000D01*
X40532833Y-97155000D01*
X40435424Y-97164594D01*
X40402224Y-97167864D01*
X40300558Y-97198704D01*
X40234649Y-97218697D01*
X40080209Y-97301247D01*
X39944841Y-97412341D01*
X39917006Y-97446258D01*
X31815395Y-105547870D01*
X31765602Y-105557774D01*
X31577244Y-105635795D01*
X31407726Y-105749063D01*
X31263563Y-105893226D01*
X31150295Y-106062744D01*
X31072274Y-106251102D01*
X31032500Y-106451061D01*
X21615000Y-106451061D01*
X21615000Y-100926561D01*
X31159500Y-100926561D01*
X31159500Y-101130439D01*
X31199274Y-101330398D01*
X31277295Y-101518756D01*
X31390563Y-101688274D01*
X31534726Y-101832437D01*
X31704244Y-101945705D01*
X31892602Y-102023726D01*
X32092561Y-102063500D01*
X32296439Y-102063500D01*
X32496398Y-102023726D01*
X32684756Y-101945705D01*
X32854274Y-101832437D01*
X32998437Y-101688274D01*
X33111705Y-101518756D01*
X33189726Y-101330398D01*
X33199630Y-101280605D01*
X41071736Y-93408500D01*
X273343032Y-93408500D01*
X273385244Y-93436705D01*
X273573602Y-93514726D01*
X273773561Y-93554500D01*
X273977439Y-93554500D01*
X274177398Y-93514726D01*
X274365756Y-93436705D01*
X274535274Y-93323437D01*
X274679437Y-93179274D01*
X274792705Y-93009756D01*
X274870726Y-92821398D01*
X274910500Y-92621439D01*
X274910500Y-92417561D01*
X274870726Y-92217602D01*
X274792705Y-92029244D01*
X274679437Y-91859726D01*
X274535274Y-91715563D01*
X274365756Y-91602295D01*
X274177398Y-91524274D01*
X273977439Y-91484500D01*
X273773561Y-91484500D01*
X273573602Y-91524274D01*
X273385244Y-91602295D01*
X273343032Y-91630500D01*
X40747159Y-91630500D01*
X40703499Y-91626200D01*
X40659839Y-91630500D01*
X40659833Y-91630500D01*
X40562424Y-91640094D01*
X40529224Y-91643364D01*
X40427558Y-91674204D01*
X40361649Y-91694197D01*
X40207209Y-91776747D01*
X40071841Y-91887841D01*
X40044006Y-91921758D01*
X31942395Y-100023370D01*
X31892602Y-100033274D01*
X31704244Y-100111295D01*
X31534726Y-100224563D01*
X31390563Y-100368726D01*
X31277295Y-100538244D01*
X31199274Y-100726602D01*
X31159500Y-100926561D01*
X21615000Y-100926561D01*
X21615000Y-95465561D01*
X31159500Y-95465561D01*
X31159500Y-95669439D01*
X31199274Y-95869398D01*
X31277295Y-96057756D01*
X31390563Y-96227274D01*
X31534726Y-96371437D01*
X31704244Y-96484705D01*
X31892602Y-96562726D01*
X32092561Y-96602500D01*
X32296439Y-96602500D01*
X32496398Y-96562726D01*
X32684756Y-96484705D01*
X32854274Y-96371437D01*
X32998437Y-96227274D01*
X33111705Y-96057756D01*
X33189726Y-95869398D01*
X33199630Y-95819605D01*
X41071736Y-87947500D01*
X273343032Y-87947500D01*
X273385244Y-87975705D01*
X273573602Y-88053726D01*
X273773561Y-88093500D01*
X273977439Y-88093500D01*
X274177398Y-88053726D01*
X274365756Y-87975705D01*
X274535274Y-87862437D01*
X274679437Y-87718274D01*
X274792705Y-87548756D01*
X274870726Y-87360398D01*
X274910500Y-87160439D01*
X274910500Y-86956561D01*
X274870726Y-86756602D01*
X274792705Y-86568244D01*
X274679437Y-86398726D01*
X274535274Y-86254563D01*
X274365756Y-86141295D01*
X274177398Y-86063274D01*
X273977439Y-86023500D01*
X273773561Y-86023500D01*
X273573602Y-86063274D01*
X273385244Y-86141295D01*
X273343032Y-86169500D01*
X40747159Y-86169500D01*
X40703499Y-86165200D01*
X40659839Y-86169500D01*
X40659833Y-86169500D01*
X40562424Y-86179094D01*
X40529224Y-86182364D01*
X40427558Y-86213204D01*
X40361649Y-86233197D01*
X40207209Y-86315747D01*
X40071841Y-86426841D01*
X40044006Y-86460758D01*
X31942395Y-94562370D01*
X31892602Y-94572274D01*
X31704244Y-94650295D01*
X31534726Y-94763563D01*
X31390563Y-94907726D01*
X31277295Y-95077244D01*
X31199274Y-95265602D01*
X31159500Y-95465561D01*
X21615000Y-95465561D01*
X21615000Y-90004561D01*
X31159500Y-90004561D01*
X31159500Y-90208439D01*
X31199274Y-90408398D01*
X31277295Y-90596756D01*
X31390563Y-90766274D01*
X31534726Y-90910437D01*
X31704244Y-91023705D01*
X31892602Y-91101726D01*
X32092561Y-91141500D01*
X32296439Y-91141500D01*
X32496398Y-91101726D01*
X32684756Y-91023705D01*
X32854274Y-90910437D01*
X32998437Y-90766274D01*
X33111705Y-90596756D01*
X33189726Y-90408398D01*
X33199630Y-90358605D01*
X41071736Y-82486500D01*
X273343032Y-82486500D01*
X273385244Y-82514705D01*
X273573602Y-82592726D01*
X273773561Y-82632500D01*
X273977439Y-82632500D01*
X274177398Y-82592726D01*
X274365756Y-82514705D01*
X274535274Y-82401437D01*
X274679437Y-82257274D01*
X274792705Y-82087756D01*
X274870726Y-81899398D01*
X274910500Y-81699439D01*
X274910500Y-81495561D01*
X274870726Y-81295602D01*
X274792705Y-81107244D01*
X274679437Y-80937726D01*
X274535274Y-80793563D01*
X274365756Y-80680295D01*
X274177398Y-80602274D01*
X273977439Y-80562500D01*
X273773561Y-80562500D01*
X273573602Y-80602274D01*
X273385244Y-80680295D01*
X273343032Y-80708500D01*
X40747159Y-80708500D01*
X40703499Y-80704200D01*
X40659839Y-80708500D01*
X40659833Y-80708500D01*
X40562424Y-80718094D01*
X40529224Y-80721364D01*
X40427558Y-80752204D01*
X40361649Y-80772197D01*
X40207209Y-80854747D01*
X40071841Y-80965841D01*
X40044006Y-80999758D01*
X31942395Y-89101370D01*
X31892602Y-89111274D01*
X31704244Y-89189295D01*
X31534726Y-89302563D01*
X31390563Y-89446726D01*
X31277295Y-89616244D01*
X31199274Y-89804602D01*
X31159500Y-90004561D01*
X21615000Y-90004561D01*
X21615000Y-84543561D01*
X31096000Y-84543561D01*
X31096000Y-84747439D01*
X31135774Y-84947398D01*
X31213795Y-85135756D01*
X31327063Y-85305274D01*
X31471226Y-85449437D01*
X31640744Y-85562705D01*
X31829102Y-85640726D01*
X32029061Y-85680500D01*
X32232939Y-85680500D01*
X32432898Y-85640726D01*
X32621256Y-85562705D01*
X32790774Y-85449437D01*
X32934937Y-85305274D01*
X33048205Y-85135756D01*
X33126226Y-84947398D01*
X33136130Y-84897605D01*
X41008236Y-77025500D01*
X273279532Y-77025500D01*
X273321744Y-77053705D01*
X273510102Y-77131726D01*
X273710061Y-77171500D01*
X273913939Y-77171500D01*
X274113898Y-77131726D01*
X274302256Y-77053705D01*
X274471774Y-76940437D01*
X274615937Y-76796274D01*
X274729205Y-76626756D01*
X274807226Y-76438398D01*
X274847000Y-76238439D01*
X274847000Y-76034561D01*
X274807226Y-75834602D01*
X274729205Y-75646244D01*
X274615937Y-75476726D01*
X274471774Y-75332563D01*
X274302256Y-75219295D01*
X274113898Y-75141274D01*
X273913939Y-75101500D01*
X273710061Y-75101500D01*
X273510102Y-75141274D01*
X273321744Y-75219295D01*
X273279532Y-75247500D01*
X40683659Y-75247500D01*
X40639999Y-75243200D01*
X40596339Y-75247500D01*
X40596333Y-75247500D01*
X40498924Y-75257094D01*
X40465724Y-75260364D01*
X40364058Y-75291204D01*
X40298149Y-75311197D01*
X40143709Y-75393747D01*
X40008341Y-75504841D01*
X39980506Y-75538758D01*
X31878895Y-83640370D01*
X31829102Y-83650274D01*
X31640744Y-83728295D01*
X31471226Y-83841563D01*
X31327063Y-83985726D01*
X31213795Y-84155244D01*
X31135774Y-84343602D01*
X31096000Y-84543561D01*
X21615000Y-84543561D01*
X21615000Y-79146061D01*
X31096000Y-79146061D01*
X31096000Y-79349939D01*
X31135774Y-79549898D01*
X31213795Y-79738256D01*
X31327063Y-79907774D01*
X31471226Y-80051937D01*
X31640744Y-80165205D01*
X31829102Y-80243226D01*
X32029061Y-80283000D01*
X32232939Y-80283000D01*
X32432898Y-80243226D01*
X32621256Y-80165205D01*
X32790774Y-80051937D01*
X32934937Y-79907774D01*
X33048205Y-79738256D01*
X33126226Y-79549898D01*
X33136130Y-79500105D01*
X41008236Y-71628000D01*
X273279532Y-71628000D01*
X273321744Y-71656205D01*
X273510102Y-71734226D01*
X273710061Y-71774000D01*
X273913939Y-71774000D01*
X274113898Y-71734226D01*
X274302256Y-71656205D01*
X274471774Y-71542937D01*
X274615937Y-71398774D01*
X274729205Y-71229256D01*
X274807226Y-71040898D01*
X274847000Y-70840939D01*
X274847000Y-70637061D01*
X274807226Y-70437102D01*
X274729205Y-70248744D01*
X274615937Y-70079226D01*
X274471774Y-69935063D01*
X274302256Y-69821795D01*
X274113898Y-69743774D01*
X273913939Y-69704000D01*
X273710061Y-69704000D01*
X273510102Y-69743774D01*
X273321744Y-69821795D01*
X273279532Y-69850000D01*
X40683659Y-69850000D01*
X40639999Y-69845700D01*
X40596339Y-69850000D01*
X40596333Y-69850000D01*
X40498924Y-69859594D01*
X40465724Y-69862864D01*
X40364058Y-69893704D01*
X40298149Y-69913697D01*
X40143709Y-69996247D01*
X40008341Y-70107341D01*
X39980506Y-70141258D01*
X31878895Y-78242870D01*
X31829102Y-78252774D01*
X31640744Y-78330795D01*
X31471226Y-78444063D01*
X31327063Y-78588226D01*
X31213795Y-78757744D01*
X31135774Y-78946102D01*
X31096000Y-79146061D01*
X21615000Y-79146061D01*
X21615000Y-76365000D01*
X24596928Y-76365000D01*
X24609188Y-76489482D01*
X24645498Y-76609180D01*
X24704463Y-76719494D01*
X24783815Y-76816185D01*
X24880506Y-76895537D01*
X24990820Y-76954502D01*
X25110518Y-76990812D01*
X25235000Y-77003072D01*
X25749250Y-77000000D01*
X25908000Y-76841250D01*
X25908000Y-75692000D01*
X26162000Y-75692000D01*
X26162000Y-76841250D01*
X26320750Y-77000000D01*
X26835000Y-77003072D01*
X26959482Y-76990812D01*
X27079180Y-76954502D01*
X27189494Y-76895537D01*
X27286185Y-76816185D01*
X27365537Y-76719494D01*
X27424502Y-76609180D01*
X27460812Y-76489482D01*
X27473072Y-76365000D01*
X27470000Y-75850750D01*
X27311250Y-75692000D01*
X26162000Y-75692000D01*
X25908000Y-75692000D01*
X24758750Y-75692000D01*
X24600000Y-75850750D01*
X24596928Y-76365000D01*
X21615000Y-76365000D01*
X21615000Y-74765000D01*
X24596928Y-74765000D01*
X24600000Y-75279250D01*
X24758750Y-75438000D01*
X25908000Y-75438000D01*
X25908000Y-75418000D01*
X26162000Y-75418000D01*
X26162000Y-75438000D01*
X27311250Y-75438000D01*
X27470000Y-75279250D01*
X27473072Y-74765000D01*
X27460812Y-74640518D01*
X27424502Y-74520820D01*
X27365537Y-74410506D01*
X27286185Y-74313815D01*
X27189494Y-74234463D01*
X27079180Y-74175498D01*
X26983057Y-74146339D01*
X27149637Y-73979759D01*
X27306680Y-73744727D01*
X27357696Y-73621561D01*
X31096000Y-73621561D01*
X31096000Y-73825439D01*
X31135774Y-74025398D01*
X31213795Y-74213756D01*
X31327063Y-74383274D01*
X31471226Y-74527437D01*
X31640744Y-74640705D01*
X31829102Y-74718726D01*
X32029061Y-74758500D01*
X32232939Y-74758500D01*
X32432898Y-74718726D01*
X32621256Y-74640705D01*
X32790774Y-74527437D01*
X32934937Y-74383274D01*
X33048205Y-74213756D01*
X33126226Y-74025398D01*
X33136130Y-73975605D01*
X41008236Y-66103500D01*
X273279532Y-66103500D01*
X273321744Y-66131705D01*
X273510102Y-66209726D01*
X273710061Y-66249500D01*
X273913939Y-66249500D01*
X274113898Y-66209726D01*
X274302256Y-66131705D01*
X274471774Y-66018437D01*
X274615937Y-65874274D01*
X274729205Y-65704756D01*
X274807226Y-65516398D01*
X274847000Y-65316439D01*
X274847000Y-65112561D01*
X274807226Y-64912602D01*
X274729205Y-64724244D01*
X274615937Y-64554726D01*
X274471774Y-64410563D01*
X274302256Y-64297295D01*
X274113898Y-64219274D01*
X273913939Y-64179500D01*
X273710061Y-64179500D01*
X273510102Y-64219274D01*
X273321744Y-64297295D01*
X273279532Y-64325500D01*
X40683659Y-64325500D01*
X40639999Y-64321200D01*
X40596339Y-64325500D01*
X40596333Y-64325500D01*
X40498924Y-64335094D01*
X40465724Y-64338364D01*
X40364058Y-64369204D01*
X40298149Y-64389197D01*
X40143709Y-64471747D01*
X40008341Y-64582841D01*
X39980506Y-64616758D01*
X31878895Y-72718370D01*
X31829102Y-72728274D01*
X31640744Y-72806295D01*
X31471226Y-72919563D01*
X31327063Y-73063726D01*
X31213795Y-73233244D01*
X31135774Y-73421602D01*
X31096000Y-73621561D01*
X27357696Y-73621561D01*
X27414853Y-73483574D01*
X27470000Y-73206335D01*
X27470000Y-72923665D01*
X27414853Y-72646426D01*
X27306680Y-72385273D01*
X27149637Y-72150241D01*
X26949759Y-71950363D01*
X26714727Y-71793320D01*
X26453574Y-71685147D01*
X26176335Y-71630000D01*
X25893665Y-71630000D01*
X25616426Y-71685147D01*
X25355273Y-71793320D01*
X25120241Y-71950363D01*
X24920363Y-72150241D01*
X24763320Y-72385273D01*
X24655147Y-72646426D01*
X24600000Y-72923665D01*
X24600000Y-73206335D01*
X24655147Y-73483574D01*
X24763320Y-73744727D01*
X24920363Y-73979759D01*
X25086943Y-74146339D01*
X24990820Y-74175498D01*
X24880506Y-74234463D01*
X24783815Y-74313815D01*
X24704463Y-74410506D01*
X24645498Y-74520820D01*
X24609188Y-74640518D01*
X24596928Y-74765000D01*
X21615000Y-74765000D01*
X21615000Y-64326840D01*
X23376292Y-66088133D01*
X23408104Y-66126896D01*
X23562810Y-66253860D01*
X23739313Y-66348202D01*
X23872732Y-66388674D01*
X23930828Y-66406298D01*
X23942657Y-66407463D01*
X24080098Y-66421000D01*
X24080105Y-66421000D01*
X24129999Y-66425914D01*
X24179893Y-66421000D01*
X24627202Y-66421000D01*
X24687337Y-66510998D01*
X24851339Y-66675000D01*
X24687337Y-66839002D01*
X24497463Y-67123169D01*
X24366675Y-67438919D01*
X24300000Y-67774117D01*
X24300000Y-68115883D01*
X24366675Y-68451081D01*
X24497463Y-68766831D01*
X24687337Y-69050998D01*
X24929002Y-69292663D01*
X25213169Y-69482537D01*
X25528919Y-69613325D01*
X25864117Y-69680000D01*
X26205883Y-69680000D01*
X26541081Y-69613325D01*
X26856831Y-69482537D01*
X27140998Y-69292663D01*
X27382663Y-69050998D01*
X27572537Y-68766831D01*
X27703325Y-68451081D01*
X27761112Y-68160561D01*
X31096000Y-68160561D01*
X31096000Y-68364439D01*
X31135774Y-68564398D01*
X31213795Y-68752756D01*
X31327063Y-68922274D01*
X31471226Y-69066437D01*
X31640744Y-69179705D01*
X31829102Y-69257726D01*
X32029061Y-69297500D01*
X32232939Y-69297500D01*
X32432898Y-69257726D01*
X32621256Y-69179705D01*
X32790774Y-69066437D01*
X32934937Y-68922274D01*
X33048205Y-68752756D01*
X33126226Y-68564398D01*
X33136130Y-68514605D01*
X41008236Y-60642500D01*
X273279532Y-60642500D01*
X273321744Y-60670705D01*
X273510102Y-60748726D01*
X273710061Y-60788500D01*
X273913939Y-60788500D01*
X274113898Y-60748726D01*
X274302256Y-60670705D01*
X274471774Y-60557437D01*
X274615937Y-60413274D01*
X274729205Y-60243756D01*
X274807226Y-60055398D01*
X274847000Y-59855439D01*
X274847000Y-59651561D01*
X274807226Y-59451602D01*
X274729205Y-59263244D01*
X274615937Y-59093726D01*
X274471774Y-58949563D01*
X274302256Y-58836295D01*
X274113898Y-58758274D01*
X273913939Y-58718500D01*
X273710061Y-58718500D01*
X273510102Y-58758274D01*
X273321744Y-58836295D01*
X273279532Y-58864500D01*
X40683659Y-58864500D01*
X40639999Y-58860200D01*
X40596339Y-58864500D01*
X40596333Y-58864500D01*
X40498924Y-58874094D01*
X40465724Y-58877364D01*
X40364058Y-58908204D01*
X40298149Y-58928197D01*
X40143709Y-59010747D01*
X40008341Y-59121841D01*
X39980506Y-59155758D01*
X31878895Y-67257370D01*
X31829102Y-67267274D01*
X31640744Y-67345295D01*
X31471226Y-67458563D01*
X31327063Y-67602726D01*
X31213795Y-67772244D01*
X31135774Y-67960602D01*
X31096000Y-68160561D01*
X27761112Y-68160561D01*
X27770000Y-68115883D01*
X27770000Y-67774117D01*
X27703325Y-67438919D01*
X27572537Y-67123169D01*
X27382663Y-66839002D01*
X27218661Y-66675000D01*
X27382663Y-66510998D01*
X27572537Y-66226831D01*
X27703325Y-65911081D01*
X27770000Y-65575883D01*
X27770000Y-65234117D01*
X27703325Y-64898919D01*
X27572537Y-64583169D01*
X27382663Y-64299002D01*
X27218661Y-64135000D01*
X27382663Y-63970998D01*
X27572537Y-63686831D01*
X27703325Y-63371081D01*
X27770000Y-63035883D01*
X27770000Y-62699561D01*
X31096000Y-62699561D01*
X31096000Y-62903439D01*
X31135774Y-63103398D01*
X31213795Y-63291756D01*
X31327063Y-63461274D01*
X31471226Y-63605437D01*
X31640744Y-63718705D01*
X31829102Y-63796726D01*
X32029061Y-63836500D01*
X32232939Y-63836500D01*
X32432898Y-63796726D01*
X32621256Y-63718705D01*
X32790774Y-63605437D01*
X32934937Y-63461274D01*
X33048205Y-63291756D01*
X33126226Y-63103398D01*
X33136130Y-63053605D01*
X41008236Y-55181500D01*
X273279532Y-55181500D01*
X273321744Y-55209705D01*
X273510102Y-55287726D01*
X273710061Y-55327500D01*
X273913939Y-55327500D01*
X274113898Y-55287726D01*
X274302256Y-55209705D01*
X274471774Y-55096437D01*
X274615937Y-54952274D01*
X274729205Y-54782756D01*
X274807226Y-54594398D01*
X274847000Y-54394439D01*
X274847000Y-54190561D01*
X274807226Y-53990602D01*
X274729205Y-53802244D01*
X274615937Y-53632726D01*
X274471774Y-53488563D01*
X274302256Y-53375295D01*
X274113898Y-53297274D01*
X273913939Y-53257500D01*
X273710061Y-53257500D01*
X273510102Y-53297274D01*
X273321744Y-53375295D01*
X273279532Y-53403500D01*
X40683659Y-53403500D01*
X40639999Y-53399200D01*
X40596339Y-53403500D01*
X40596333Y-53403500D01*
X40498924Y-53413094D01*
X40465724Y-53416364D01*
X40364058Y-53447204D01*
X40298149Y-53467197D01*
X40143709Y-53549747D01*
X40008341Y-53660841D01*
X39980506Y-53694758D01*
X31878895Y-61796370D01*
X31829102Y-61806274D01*
X31640744Y-61884295D01*
X31471226Y-61997563D01*
X31327063Y-62141726D01*
X31213795Y-62311244D01*
X31135774Y-62499602D01*
X31096000Y-62699561D01*
X27770000Y-62699561D01*
X27770000Y-62694117D01*
X27703325Y-62358919D01*
X27572537Y-62043169D01*
X27505310Y-61942557D01*
X27586185Y-61876185D01*
X27665537Y-61779494D01*
X27724502Y-61669180D01*
X27760812Y-61549482D01*
X27773072Y-61425000D01*
X27770000Y-60610750D01*
X27611250Y-60452000D01*
X26162000Y-60452000D01*
X26162000Y-60472000D01*
X25908000Y-60472000D01*
X25908000Y-60452000D01*
X24458750Y-60452000D01*
X24300000Y-60610750D01*
X24296928Y-61425000D01*
X24309188Y-61549482D01*
X24345498Y-61669180D01*
X24404463Y-61779494D01*
X24483815Y-61876185D01*
X24564690Y-61942557D01*
X24497463Y-62043169D01*
X24366675Y-62358919D01*
X24300000Y-62694117D01*
X24300000Y-63035883D01*
X24366675Y-63371081D01*
X24497463Y-63686831D01*
X24687337Y-63970998D01*
X24851339Y-64135000D01*
X24687337Y-64299002D01*
X24627202Y-64389000D01*
X24550841Y-64389000D01*
X22606000Y-62444160D01*
X22606000Y-59225000D01*
X24296928Y-59225000D01*
X24300000Y-60039250D01*
X24458750Y-60198000D01*
X25908000Y-60198000D01*
X25908000Y-58748750D01*
X26162000Y-58748750D01*
X26162000Y-60198000D01*
X27611250Y-60198000D01*
X27770000Y-60039250D01*
X27773072Y-59225000D01*
X27760812Y-59100518D01*
X27724502Y-58980820D01*
X27665537Y-58870506D01*
X27586185Y-58773815D01*
X27489494Y-58694463D01*
X27379180Y-58635498D01*
X27259482Y-58599188D01*
X27135000Y-58586928D01*
X26320750Y-58590000D01*
X26162000Y-58748750D01*
X25908000Y-58748750D01*
X25749250Y-58590000D01*
X24935000Y-58586928D01*
X24810518Y-58599188D01*
X24690820Y-58635498D01*
X24580506Y-58694463D01*
X24483815Y-58773815D01*
X24404463Y-58870506D01*
X24345498Y-58980820D01*
X24309188Y-59100518D01*
X24296928Y-59225000D01*
X22606000Y-59225000D01*
X22606000Y-57111561D01*
X31096000Y-57111561D01*
X31096000Y-57315439D01*
X31135774Y-57515398D01*
X31213795Y-57703756D01*
X31327063Y-57873274D01*
X31471226Y-58017437D01*
X31640744Y-58130705D01*
X31829102Y-58208726D01*
X32029061Y-58248500D01*
X32232939Y-58248500D01*
X32432898Y-58208726D01*
X32621256Y-58130705D01*
X32790774Y-58017437D01*
X32934937Y-57873274D01*
X33048205Y-57703756D01*
X33126226Y-57515398D01*
X33136130Y-57465605D01*
X41008236Y-49593500D01*
X273279532Y-49593500D01*
X273321744Y-49621705D01*
X273510102Y-49699726D01*
X273710061Y-49739500D01*
X273913939Y-49739500D01*
X274113898Y-49699726D01*
X274302256Y-49621705D01*
X274471774Y-49508437D01*
X274615937Y-49364274D01*
X274729205Y-49194756D01*
X274807226Y-49006398D01*
X274847000Y-48806439D01*
X274847000Y-48602561D01*
X274807226Y-48402602D01*
X274729205Y-48214244D01*
X274615937Y-48044726D01*
X274471774Y-47900563D01*
X274302256Y-47787295D01*
X274113898Y-47709274D01*
X273913939Y-47669500D01*
X273710061Y-47669500D01*
X273510102Y-47709274D01*
X273321744Y-47787295D01*
X273279532Y-47815500D01*
X40683659Y-47815500D01*
X40639999Y-47811200D01*
X40596339Y-47815500D01*
X40596333Y-47815500D01*
X40498924Y-47825094D01*
X40465724Y-47828364D01*
X40364058Y-47859204D01*
X40298149Y-47879197D01*
X40143709Y-47961747D01*
X40008341Y-48072841D01*
X39980506Y-48106758D01*
X31878895Y-56208370D01*
X31829102Y-56218274D01*
X31640744Y-56296295D01*
X31471226Y-56409563D01*
X31327063Y-56553726D01*
X31213795Y-56723244D01*
X31135774Y-56911602D01*
X31096000Y-57111561D01*
X22606000Y-57111561D01*
X22606000Y-51650561D01*
X31159500Y-51650561D01*
X31159500Y-51854439D01*
X31199274Y-52054398D01*
X31277295Y-52242756D01*
X31390563Y-52412274D01*
X31534726Y-52556437D01*
X31704244Y-52669705D01*
X31892602Y-52747726D01*
X32092561Y-52787500D01*
X32296439Y-52787500D01*
X32496398Y-52747726D01*
X32684756Y-52669705D01*
X32854274Y-52556437D01*
X32998437Y-52412274D01*
X33111705Y-52242756D01*
X33189726Y-52054398D01*
X33199630Y-52004605D01*
X41071736Y-44132500D01*
X273343032Y-44132500D01*
X273385244Y-44160705D01*
X273573602Y-44238726D01*
X273773561Y-44278500D01*
X273977439Y-44278500D01*
X274177398Y-44238726D01*
X274365756Y-44160705D01*
X274535274Y-44047437D01*
X274679437Y-43903274D01*
X274792705Y-43733756D01*
X274870726Y-43545398D01*
X274910500Y-43345439D01*
X274910500Y-43141561D01*
X274870726Y-42941602D01*
X274792705Y-42753244D01*
X274679437Y-42583726D01*
X274535274Y-42439563D01*
X274365756Y-42326295D01*
X274177398Y-42248274D01*
X273977439Y-42208500D01*
X273773561Y-42208500D01*
X273573602Y-42248274D01*
X273385244Y-42326295D01*
X273343032Y-42354500D01*
X40747159Y-42354500D01*
X40703499Y-42350200D01*
X40659839Y-42354500D01*
X40659833Y-42354500D01*
X40562424Y-42364094D01*
X40529224Y-42367364D01*
X40464269Y-42387068D01*
X40361649Y-42418197D01*
X40207209Y-42500747D01*
X40071841Y-42611841D01*
X40044006Y-42645758D01*
X31942395Y-50747370D01*
X31892602Y-50757274D01*
X31704244Y-50835295D01*
X31534726Y-50948563D01*
X31390563Y-51092726D01*
X31277295Y-51262244D01*
X31199274Y-51450602D01*
X31159500Y-51650561D01*
X22606000Y-51650561D01*
X22606000Y-47205000D01*
X25816928Y-47205000D01*
X25829188Y-47329482D01*
X25865498Y-47449180D01*
X25924463Y-47559494D01*
X26003815Y-47656185D01*
X26100506Y-47735537D01*
X26210820Y-47794502D01*
X26330518Y-47830812D01*
X26455000Y-47843072D01*
X27019250Y-47840000D01*
X27178000Y-47681250D01*
X27178000Y-46482000D01*
X27432000Y-46482000D01*
X27432000Y-47681250D01*
X27590750Y-47840000D01*
X28155000Y-47843072D01*
X28279482Y-47830812D01*
X28399180Y-47794502D01*
X28509494Y-47735537D01*
X28606185Y-47656185D01*
X28685537Y-47559494D01*
X28744502Y-47449180D01*
X28780812Y-47329482D01*
X28793072Y-47205000D01*
X28790000Y-46640750D01*
X28631250Y-46482000D01*
X27432000Y-46482000D01*
X27178000Y-46482000D01*
X25978750Y-46482000D01*
X25820000Y-46640750D01*
X25816928Y-47205000D01*
X22606000Y-47205000D01*
X22606000Y-44235840D01*
X24550841Y-42291000D01*
X26220893Y-42291000D01*
X26358368Y-42428475D01*
X26532760Y-42545000D01*
X26358368Y-42661525D01*
X26151525Y-42868368D01*
X25989010Y-43111589D01*
X25877068Y-43381842D01*
X25820000Y-43668740D01*
X25820000Y-43961260D01*
X25877068Y-44248158D01*
X25989010Y-44518411D01*
X26151525Y-44761632D01*
X26283380Y-44893487D01*
X26210820Y-44915498D01*
X26100506Y-44974463D01*
X26003815Y-45053815D01*
X25924463Y-45150506D01*
X25865498Y-45260820D01*
X25829188Y-45380518D01*
X25816928Y-45505000D01*
X25820000Y-46069250D01*
X25978750Y-46228000D01*
X27178000Y-46228000D01*
X27178000Y-46208000D01*
X27432000Y-46208000D01*
X27432000Y-46228000D01*
X28631250Y-46228000D01*
X28669689Y-46189561D01*
X31096000Y-46189561D01*
X31096000Y-46393439D01*
X31135774Y-46593398D01*
X31213795Y-46781756D01*
X31327063Y-46951274D01*
X31471226Y-47095437D01*
X31640744Y-47208705D01*
X31829102Y-47286726D01*
X32029061Y-47326500D01*
X32232939Y-47326500D01*
X32432898Y-47286726D01*
X32621256Y-47208705D01*
X32790774Y-47095437D01*
X32934937Y-46951274D01*
X33048205Y-46781756D01*
X33126226Y-46593398D01*
X33136130Y-46543605D01*
X41008236Y-38671500D01*
X273279532Y-38671500D01*
X273321744Y-38699705D01*
X273510102Y-38777726D01*
X273710061Y-38817500D01*
X273913939Y-38817500D01*
X274113898Y-38777726D01*
X274302256Y-38699705D01*
X274471774Y-38586437D01*
X274615937Y-38442274D01*
X274729205Y-38272756D01*
X274807226Y-38084398D01*
X274847000Y-37884439D01*
X274847000Y-37680561D01*
X274807226Y-37480602D01*
X274729205Y-37292244D01*
X274615937Y-37122726D01*
X274471774Y-36978563D01*
X274302256Y-36865295D01*
X274113898Y-36787274D01*
X273913939Y-36747500D01*
X273710061Y-36747500D01*
X273510102Y-36787274D01*
X273321744Y-36865295D01*
X273279532Y-36893500D01*
X40683659Y-36893500D01*
X40639999Y-36889200D01*
X40596339Y-36893500D01*
X40596333Y-36893500D01*
X40498924Y-36903094D01*
X40465724Y-36906364D01*
X40364058Y-36937204D01*
X40298149Y-36957197D01*
X40143709Y-37039747D01*
X40008341Y-37150841D01*
X39980506Y-37184758D01*
X31878895Y-45286370D01*
X31829102Y-45296274D01*
X31640744Y-45374295D01*
X31471226Y-45487563D01*
X31327063Y-45631726D01*
X31213795Y-45801244D01*
X31135774Y-45989602D01*
X31096000Y-46189561D01*
X28669689Y-46189561D01*
X28790000Y-46069250D01*
X28793072Y-45505000D01*
X28780812Y-45380518D01*
X28744502Y-45260820D01*
X28685537Y-45150506D01*
X28606185Y-45053815D01*
X28509494Y-44974463D01*
X28399180Y-44915498D01*
X28326620Y-44893487D01*
X28458475Y-44761632D01*
X28620990Y-44518411D01*
X28732932Y-44248158D01*
X28790000Y-43961260D01*
X28790000Y-43668740D01*
X28732932Y-43381842D01*
X28620990Y-43111589D01*
X28458475Y-42868368D01*
X28251632Y-42661525D01*
X28077240Y-42545000D01*
X28251632Y-42428475D01*
X28458475Y-42221632D01*
X28620990Y-41978411D01*
X28732932Y-41708158D01*
X28790000Y-41421260D01*
X28790000Y-41128740D01*
X28732932Y-40841842D01*
X28633405Y-40601561D01*
X31096000Y-40601561D01*
X31096000Y-40805439D01*
X31135774Y-41005398D01*
X31213795Y-41193756D01*
X31327063Y-41363274D01*
X31471226Y-41507437D01*
X31640744Y-41620705D01*
X31829102Y-41698726D01*
X32029061Y-41738500D01*
X32232939Y-41738500D01*
X32432898Y-41698726D01*
X32621256Y-41620705D01*
X32790774Y-41507437D01*
X32934937Y-41363274D01*
X33048205Y-41193756D01*
X33126226Y-41005398D01*
X33136130Y-40955605D01*
X41008236Y-33083500D01*
X273279532Y-33083500D01*
X273321744Y-33111705D01*
X273510102Y-33189726D01*
X273710061Y-33229500D01*
X273913939Y-33229500D01*
X274113898Y-33189726D01*
X274302256Y-33111705D01*
X274471774Y-32998437D01*
X274615937Y-32854274D01*
X274729205Y-32684756D01*
X274807226Y-32496398D01*
X274847000Y-32296439D01*
X274847000Y-32092561D01*
X274807226Y-31892602D01*
X274729205Y-31704244D01*
X274615937Y-31534726D01*
X274471774Y-31390563D01*
X274302256Y-31277295D01*
X274113898Y-31199274D01*
X273913939Y-31159500D01*
X273710061Y-31159500D01*
X273510102Y-31199274D01*
X273321744Y-31277295D01*
X273279532Y-31305500D01*
X40683659Y-31305500D01*
X40639999Y-31301200D01*
X40596339Y-31305500D01*
X40596333Y-31305500D01*
X40498924Y-31315094D01*
X40465724Y-31318364D01*
X40364058Y-31349204D01*
X40298149Y-31369197D01*
X40143709Y-31451747D01*
X40008341Y-31562841D01*
X39980506Y-31596758D01*
X31878895Y-39698370D01*
X31829102Y-39708274D01*
X31640744Y-39786295D01*
X31471226Y-39899563D01*
X31327063Y-40043726D01*
X31213795Y-40213244D01*
X31135774Y-40401602D01*
X31096000Y-40601561D01*
X28633405Y-40601561D01*
X28620990Y-40571589D01*
X28458475Y-40328368D01*
X28251632Y-40121525D01*
X28077240Y-40005000D01*
X28251632Y-39888475D01*
X28458475Y-39681632D01*
X28620990Y-39438411D01*
X28732932Y-39168158D01*
X28790000Y-38881260D01*
X28790000Y-38588740D01*
X28732932Y-38301842D01*
X28620990Y-38031589D01*
X28458475Y-37788368D01*
X28251632Y-37581525D01*
X28008411Y-37419010D01*
X27738158Y-37307068D01*
X27451260Y-37250000D01*
X27158740Y-37250000D01*
X26871842Y-37307068D01*
X26601589Y-37419010D01*
X26358368Y-37581525D01*
X26151525Y-37788368D01*
X25989010Y-38031589D01*
X25877068Y-38301842D01*
X25820000Y-38588740D01*
X25820000Y-38881260D01*
X25877068Y-39168158D01*
X25989010Y-39438411D01*
X26151525Y-39681632D01*
X26358368Y-39888475D01*
X26532760Y-40005000D01*
X26358368Y-40121525D01*
X26220893Y-40259000D01*
X24179893Y-40259000D01*
X24129999Y-40254086D01*
X24080105Y-40259000D01*
X24080098Y-40259000D01*
X23950177Y-40271796D01*
X23930828Y-40273702D01*
X23872732Y-40291326D01*
X23739313Y-40331798D01*
X23562810Y-40426140D01*
X23408104Y-40553104D01*
X23376292Y-40591867D01*
X21615000Y-42353160D01*
X21615000Y-29786344D01*
X21737000Y-29786344D01*
X21737000Y-30157656D01*
X21809439Y-30521834D01*
X21951534Y-30864882D01*
X22157825Y-31173618D01*
X22420382Y-31436175D01*
X22729118Y-31642466D01*
X23072166Y-31784561D01*
X23436344Y-31857000D01*
X23807656Y-31857000D01*
X24171834Y-31784561D01*
X24514882Y-31642466D01*
X24823618Y-31436175D01*
X25086175Y-31173618D01*
X25292466Y-30864882D01*
X25434561Y-30521834D01*
X25507000Y-30157656D01*
X25507000Y-29913344D01*
X276626000Y-29913344D01*
X276626000Y-30284656D01*
X276698439Y-30648834D01*
X276840534Y-30991882D01*
X277046825Y-31300618D01*
X277309382Y-31563175D01*
X277618118Y-31769466D01*
X277961166Y-31911561D01*
X278325344Y-31984000D01*
X278696656Y-31984000D01*
X279060834Y-31911561D01*
X279403882Y-31769466D01*
X279712618Y-31563175D01*
X279975175Y-31300618D01*
X280181466Y-30991882D01*
X280323561Y-30648834D01*
X280396000Y-30284656D01*
X280396000Y-29913344D01*
X280323561Y-29549166D01*
X280181466Y-29206118D01*
X279975175Y-28897382D01*
X279712618Y-28634825D01*
X279403882Y-28428534D01*
X279060834Y-28286439D01*
X278696656Y-28214000D01*
X278325344Y-28214000D01*
X277961166Y-28286439D01*
X277618118Y-28428534D01*
X277309382Y-28634825D01*
X277046825Y-28897382D01*
X276840534Y-29206118D01*
X276698439Y-29549166D01*
X276626000Y-29913344D01*
X25507000Y-29913344D01*
X25507000Y-29786344D01*
X25434561Y-29422166D01*
X25292466Y-29079118D01*
X25086175Y-28770382D01*
X24823618Y-28507825D01*
X24514882Y-28301534D01*
X24171834Y-28159439D01*
X23807656Y-28087000D01*
X23436344Y-28087000D01*
X23072166Y-28159439D01*
X22729118Y-28301534D01*
X22420382Y-28507825D01*
X22157825Y-28770382D01*
X21951534Y-29079118D01*
X21809439Y-29422166D01*
X21737000Y-29786344D01*
X21615000Y-29786344D01*
X21615000Y-27965000D01*
X280645000Y-27965000D01*
X280645001Y-123165000D01*
M02*
