G04 #@! TF.GenerationSoftware,KiCad,Pcbnew,(5.1.5-0-10_14)*
G04 #@! TF.CreationDate,2020-03-13T19:41:52-07:00*
G04 #@! TF.ProjectId,SpectrumAnayzerMini32Horz,53706563-7472-4756-9d41-6e61797a6572,rev?*
G04 #@! TF.SameCoordinates,Original*
G04 #@! TF.FileFunction,Legend,Bot*
G04 #@! TF.FilePolarity,Positive*
%FSLAX46Y46*%
G04 Gerber Fmt 4.6, Leading zero omitted, Abs format (unit mm)*
G04 Created by KiCad (PCBNEW (5.1.5-0-10_14)) date 2020-03-13 19:41:52*
%MOMM*%
%LPD*%
G04 APERTURE LIST*
%ADD10C,0.150000*%
%ADD11C,0.120000*%
G04 APERTURE END LIST*
D10*
X23221904Y-40900714D02*
X22421904Y-40900714D01*
X22421904Y-41205476D01*
X22460000Y-41281666D01*
X22498095Y-41319761D01*
X22574285Y-41357857D01*
X22688571Y-41357857D01*
X22764761Y-41319761D01*
X22802857Y-41281666D01*
X22840952Y-41205476D01*
X22840952Y-40900714D01*
X23221904Y-41700714D02*
X22688571Y-41700714D01*
X22421904Y-41700714D02*
X22460000Y-41662619D01*
X22498095Y-41700714D01*
X22460000Y-41738809D01*
X22421904Y-41700714D01*
X22498095Y-41700714D01*
X23221904Y-42005476D02*
X22688571Y-42424523D01*
X22688571Y-42005476D02*
X23221904Y-42424523D01*
X23183809Y-43034047D02*
X23221904Y-42957857D01*
X23221904Y-42805476D01*
X23183809Y-42729285D01*
X23107619Y-42691190D01*
X22802857Y-42691190D01*
X22726666Y-42729285D01*
X22688571Y-42805476D01*
X22688571Y-42957857D01*
X22726666Y-43034047D01*
X22802857Y-43072142D01*
X22879047Y-43072142D01*
X22955238Y-42691190D01*
X23221904Y-43529285D02*
X23183809Y-43453095D01*
X23107619Y-43415000D01*
X22421904Y-43415000D01*
X22802857Y-44100714D02*
X22840952Y-44215000D01*
X22879047Y-44253095D01*
X22955238Y-44291190D01*
X23069523Y-44291190D01*
X23145714Y-44253095D01*
X23183809Y-44215000D01*
X23221904Y-44138809D01*
X23221904Y-43834047D01*
X22421904Y-43834047D01*
X22421904Y-44100714D01*
X22460000Y-44176904D01*
X22498095Y-44215000D01*
X22574285Y-44253095D01*
X22650476Y-44253095D01*
X22726666Y-44215000D01*
X22764761Y-44176904D01*
X22802857Y-44100714D01*
X22802857Y-43834047D01*
X23221904Y-44748333D02*
X23183809Y-44672142D01*
X23107619Y-44634047D01*
X22421904Y-44634047D01*
X23221904Y-45395952D02*
X22802857Y-45395952D01*
X22726666Y-45357857D01*
X22688571Y-45281666D01*
X22688571Y-45129285D01*
X22726666Y-45053095D01*
X23183809Y-45395952D02*
X23221904Y-45319761D01*
X23221904Y-45129285D01*
X23183809Y-45053095D01*
X23107619Y-45015000D01*
X23031428Y-45015000D01*
X22955238Y-45053095D01*
X22917142Y-45129285D01*
X22917142Y-45319761D01*
X22879047Y-45395952D01*
X22688571Y-45700714D02*
X22688571Y-46119761D01*
X23221904Y-45700714D01*
X23221904Y-46119761D01*
X23183809Y-46729285D02*
X23221904Y-46653095D01*
X23221904Y-46500714D01*
X23183809Y-46424523D01*
X23107619Y-46386428D01*
X22802857Y-46386428D01*
X22726666Y-46424523D01*
X22688571Y-46500714D01*
X22688571Y-46653095D01*
X22726666Y-46729285D01*
X22802857Y-46767380D01*
X22879047Y-46767380D01*
X22955238Y-46386428D01*
D11*
X60325000Y-56515000D02*
X60325000Y-30480000D01*
X60325000Y-30480000D02*
X21590000Y-30480000D01*
X21590000Y-56515000D02*
X21590000Y-30480000D01*
X21590000Y-56515000D02*
X60325000Y-56515000D01*
D10*
X276370880Y-114725404D02*
X276370880Y-113925404D01*
X276180404Y-113925404D01*
X276066119Y-113963500D01*
X275989928Y-114039690D01*
X275951833Y-114115880D01*
X275913738Y-114268261D01*
X275913738Y-114382547D01*
X275951833Y-114534928D01*
X275989928Y-114611119D01*
X276066119Y-114687309D01*
X276180404Y-114725404D01*
X276370880Y-114725404D01*
X275418500Y-113925404D02*
X275266119Y-113925404D01*
X275189928Y-113963500D01*
X275113738Y-114039690D01*
X275075642Y-114192071D01*
X275075642Y-114458738D01*
X275113738Y-114611119D01*
X275189928Y-114687309D01*
X275266119Y-114725404D01*
X275418500Y-114725404D01*
X275494690Y-114687309D01*
X275570880Y-114611119D01*
X275608976Y-114458738D01*
X275608976Y-114192071D01*
X275570880Y-114039690D01*
X275494690Y-113963500D01*
X275418500Y-113925404D01*
X274732785Y-113925404D02*
X274732785Y-114573023D01*
X274694690Y-114649214D01*
X274656595Y-114687309D01*
X274580404Y-114725404D01*
X274428023Y-114725404D01*
X274351833Y-114687309D01*
X274313738Y-114649214D01*
X274275642Y-114573023D01*
X274275642Y-113925404D01*
X274008976Y-113925404D02*
X273551833Y-113925404D01*
X273780404Y-114725404D02*
X273780404Y-113925404D01*
X275628023Y-116440000D02*
X275704214Y-116401904D01*
X275818500Y-116401904D01*
X275932785Y-116440000D01*
X276008976Y-116516190D01*
X276047071Y-116592380D01*
X276085166Y-116744761D01*
X276085166Y-116859047D01*
X276047071Y-117011428D01*
X276008976Y-117087619D01*
X275932785Y-117163809D01*
X275818500Y-117201904D01*
X275742309Y-117201904D01*
X275628023Y-117163809D01*
X275589928Y-117125714D01*
X275589928Y-116859047D01*
X275742309Y-116859047D01*
X275247071Y-117201904D02*
X275247071Y-116401904D01*
X274789928Y-117201904D01*
X274789928Y-116401904D01*
X274408976Y-117201904D02*
X274408976Y-116401904D01*
X274218500Y-116401904D01*
X274104214Y-116440000D01*
X274028023Y-116516190D01*
X273989928Y-116592380D01*
X273951833Y-116744761D01*
X273951833Y-116859047D01*
X273989928Y-117011428D01*
X274028023Y-117087619D01*
X274104214Y-117163809D01*
X274218500Y-117201904D01*
X274408976Y-117201904D01*
X276516976Y-109277142D02*
X275907452Y-109277142D01*
X276212214Y-109581904D02*
X276212214Y-108972380D01*
X275145547Y-108781904D02*
X275526500Y-108781904D01*
X275564595Y-109162857D01*
X275526500Y-109124761D01*
X275450309Y-109086666D01*
X275259833Y-109086666D01*
X275183642Y-109124761D01*
X275145547Y-109162857D01*
X275107452Y-109239047D01*
X275107452Y-109429523D01*
X275145547Y-109505714D01*
X275183642Y-109543809D01*
X275259833Y-109581904D01*
X275450309Y-109581904D01*
X275526500Y-109543809D01*
X275564595Y-109505714D01*
X274840785Y-109048571D02*
X274650309Y-109581904D01*
X274459833Y-109048571D01*
X30835523Y-38335000D02*
X30911714Y-38296904D01*
X31026000Y-38296904D01*
X31140285Y-38335000D01*
X31216476Y-38411190D01*
X31254571Y-38487380D01*
X31292666Y-38639761D01*
X31292666Y-38754047D01*
X31254571Y-38906428D01*
X31216476Y-38982619D01*
X31140285Y-39058809D01*
X31026000Y-39096904D01*
X30949809Y-39096904D01*
X30835523Y-39058809D01*
X30797428Y-39020714D01*
X30797428Y-38754047D01*
X30949809Y-38754047D01*
X30454571Y-39096904D02*
X30454571Y-38296904D01*
X29997428Y-39096904D01*
X29997428Y-38296904D01*
X29616476Y-39096904D02*
X29616476Y-38296904D01*
X29426000Y-38296904D01*
X29311714Y-38335000D01*
X29235523Y-38411190D01*
X29197428Y-38487380D01*
X29159333Y-38639761D01*
X29159333Y-38754047D01*
X29197428Y-38906428D01*
X29235523Y-38982619D01*
X29311714Y-39058809D01*
X29426000Y-39096904D01*
X29616476Y-39096904D01*
X31216476Y-46412142D02*
X30606952Y-46412142D01*
X30911714Y-46716904D02*
X30911714Y-46107380D01*
X29845047Y-45916904D02*
X30226000Y-45916904D01*
X30264095Y-46297857D01*
X30226000Y-46259761D01*
X30149809Y-46221666D01*
X29959333Y-46221666D01*
X29883142Y-46259761D01*
X29845047Y-46297857D01*
X29806952Y-46374047D01*
X29806952Y-46564523D01*
X29845047Y-46640714D01*
X29883142Y-46678809D01*
X29959333Y-46716904D01*
X30149809Y-46716904D01*
X30226000Y-46678809D01*
X30264095Y-46640714D01*
X29540285Y-46183571D02*
X29349809Y-46716904D01*
X29159333Y-46183571D01*
X31343523Y-67418000D02*
X31419714Y-67379904D01*
X31534000Y-67379904D01*
X31648285Y-67418000D01*
X31724476Y-67494190D01*
X31762571Y-67570380D01*
X31800666Y-67722761D01*
X31800666Y-67837047D01*
X31762571Y-67989428D01*
X31724476Y-68065619D01*
X31648285Y-68141809D01*
X31534000Y-68179904D01*
X31457809Y-68179904D01*
X31343523Y-68141809D01*
X31305428Y-68103714D01*
X31305428Y-67837047D01*
X31457809Y-67837047D01*
X30962571Y-68179904D02*
X30962571Y-67379904D01*
X30505428Y-68179904D01*
X30505428Y-67379904D01*
X30124476Y-68179904D02*
X30124476Y-67379904D01*
X29934000Y-67379904D01*
X29819714Y-67418000D01*
X29743523Y-67494190D01*
X29705428Y-67570380D01*
X29667333Y-67722761D01*
X29667333Y-67837047D01*
X29705428Y-67989428D01*
X29743523Y-68065619D01*
X29819714Y-68141809D01*
X29934000Y-68179904D01*
X30124476Y-68179904D01*
X31724476Y-60255142D02*
X31114952Y-60255142D01*
X31419714Y-60559904D02*
X31419714Y-59950380D01*
X30353047Y-59759904D02*
X30734000Y-59759904D01*
X30772095Y-60140857D01*
X30734000Y-60102761D01*
X30657809Y-60064666D01*
X30467333Y-60064666D01*
X30391142Y-60102761D01*
X30353047Y-60140857D01*
X30314952Y-60217047D01*
X30314952Y-60407523D01*
X30353047Y-60483714D01*
X30391142Y-60521809D01*
X30467333Y-60559904D01*
X30657809Y-60559904D01*
X30734000Y-60521809D01*
X30772095Y-60483714D01*
X30048285Y-60026571D02*
X29857809Y-60559904D01*
X29667333Y-60026571D01*
X31045047Y-41636904D02*
X31045047Y-40836904D01*
X30854571Y-40836904D01*
X30740285Y-40875000D01*
X30664095Y-40951190D01*
X30626000Y-41027380D01*
X30587904Y-41179761D01*
X30587904Y-41294047D01*
X30626000Y-41446428D01*
X30664095Y-41522619D01*
X30740285Y-41598809D01*
X30854571Y-41636904D01*
X31045047Y-41636904D01*
X30245047Y-41636904D02*
X30245047Y-40836904D01*
X29864095Y-41636904D02*
X29864095Y-40836904D01*
X29406952Y-41636904D01*
X29406952Y-40836904D01*
X31553047Y-66147904D02*
X31553047Y-65347904D01*
X31362571Y-65347904D01*
X31248285Y-65386000D01*
X31172095Y-65462190D01*
X31134000Y-65538380D01*
X31095904Y-65690761D01*
X31095904Y-65805047D01*
X31134000Y-65957428D01*
X31172095Y-66033619D01*
X31248285Y-66109809D01*
X31362571Y-66147904D01*
X31553047Y-66147904D01*
X30753047Y-66147904D02*
X30753047Y-65347904D01*
X30372095Y-66147904D02*
X30372095Y-65347904D01*
X29914952Y-66147904D01*
X29914952Y-65347904D01*
D11*
X29435000Y-58525000D02*
X29435000Y-59025000D01*
X28695000Y-58525000D02*
X29435000Y-58525000D01*
X22875000Y-69505000D02*
X29195000Y-69505000D01*
X22875000Y-58765000D02*
X29195000Y-58765000D01*
X29195000Y-58765000D02*
X29195000Y-69505000D01*
X22875000Y-58765000D02*
X22875000Y-69505000D01*
X23335000Y-58765000D02*
X23335000Y-69505000D01*
X28635000Y-58765000D02*
X28635000Y-69505000D01*
X25975000Y-47685000D02*
X27305000Y-47685000D01*
X25975000Y-46355000D02*
X25975000Y-47685000D01*
X25975000Y-45085000D02*
X28635000Y-45085000D01*
X28635000Y-45085000D02*
X28635000Y-37405000D01*
X25975000Y-45085000D02*
X25975000Y-37405000D01*
X25975000Y-37405000D02*
X28635000Y-37405000D01*
X27760000Y-76869775D02*
X27260000Y-76869775D01*
X27510000Y-77119775D02*
X27510000Y-76619775D01*
X26319000Y-71714000D02*
X25751000Y-71714000D01*
X26553000Y-71754000D02*
X25517000Y-71754000D01*
X26712000Y-71794000D02*
X25358000Y-71794000D01*
X26840000Y-71834000D02*
X25230000Y-71834000D01*
X26950000Y-71874000D02*
X25120000Y-71874000D01*
X27046000Y-71914000D02*
X25024000Y-71914000D01*
X27133000Y-71954000D02*
X24937000Y-71954000D01*
X27213000Y-71994000D02*
X24857000Y-71994000D01*
X24995000Y-72034000D02*
X24784000Y-72034000D01*
X27286000Y-72034000D02*
X27075000Y-72034000D01*
X24995000Y-72074000D02*
X24716000Y-72074000D01*
X27354000Y-72074000D02*
X27075000Y-72074000D01*
X24995000Y-72114000D02*
X24652000Y-72114000D01*
X27418000Y-72114000D02*
X27075000Y-72114000D01*
X24995000Y-72154000D02*
X24592000Y-72154000D01*
X27478000Y-72154000D02*
X27075000Y-72154000D01*
X24995000Y-72194000D02*
X24535000Y-72194000D01*
X27535000Y-72194000D02*
X27075000Y-72194000D01*
X24995000Y-72234000D02*
X24481000Y-72234000D01*
X27589000Y-72234000D02*
X27075000Y-72234000D01*
X24995000Y-72274000D02*
X24430000Y-72274000D01*
X27640000Y-72274000D02*
X27075000Y-72274000D01*
X24995000Y-72314000D02*
X24382000Y-72314000D01*
X27688000Y-72314000D02*
X27075000Y-72314000D01*
X24995000Y-72354000D02*
X24336000Y-72354000D01*
X27734000Y-72354000D02*
X27075000Y-72354000D01*
X24995000Y-72394000D02*
X24292000Y-72394000D01*
X27778000Y-72394000D02*
X27075000Y-72394000D01*
X24995000Y-72434000D02*
X24250000Y-72434000D01*
X27820000Y-72434000D02*
X27075000Y-72434000D01*
X24995000Y-72474000D02*
X24209000Y-72474000D01*
X27861000Y-72474000D02*
X27075000Y-72474000D01*
X24995000Y-72514000D02*
X24171000Y-72514000D01*
X27899000Y-72514000D02*
X27075000Y-72514000D01*
X24995000Y-72554000D02*
X24134000Y-72554000D01*
X27936000Y-72554000D02*
X27075000Y-72554000D01*
X24995000Y-72594000D02*
X24098000Y-72594000D01*
X27972000Y-72594000D02*
X27075000Y-72594000D01*
X24995000Y-72634000D02*
X24064000Y-72634000D01*
X28006000Y-72634000D02*
X27075000Y-72634000D01*
X24995000Y-72674000D02*
X24031000Y-72674000D01*
X28039000Y-72674000D02*
X27075000Y-72674000D01*
X24995000Y-72714000D02*
X24000000Y-72714000D01*
X28070000Y-72714000D02*
X27075000Y-72714000D01*
X24995000Y-72754000D02*
X23970000Y-72754000D01*
X28100000Y-72754000D02*
X27075000Y-72754000D01*
X24995000Y-72794000D02*
X23940000Y-72794000D01*
X28130000Y-72794000D02*
X27075000Y-72794000D01*
X24995000Y-72834000D02*
X23913000Y-72834000D01*
X28157000Y-72834000D02*
X27075000Y-72834000D01*
X24995000Y-72874000D02*
X23886000Y-72874000D01*
X28184000Y-72874000D02*
X27075000Y-72874000D01*
X24995000Y-72914000D02*
X23860000Y-72914000D01*
X28210000Y-72914000D02*
X27075000Y-72914000D01*
X24995000Y-72954000D02*
X23835000Y-72954000D01*
X28235000Y-72954000D02*
X27075000Y-72954000D01*
X24995000Y-72994000D02*
X23811000Y-72994000D01*
X28259000Y-72994000D02*
X27075000Y-72994000D01*
X24995000Y-73034000D02*
X23788000Y-73034000D01*
X28282000Y-73034000D02*
X27075000Y-73034000D01*
X24995000Y-73074000D02*
X23767000Y-73074000D01*
X28303000Y-73074000D02*
X27075000Y-73074000D01*
X24995000Y-73114000D02*
X23745000Y-73114000D01*
X28325000Y-73114000D02*
X27075000Y-73114000D01*
X24995000Y-73154000D02*
X23725000Y-73154000D01*
X28345000Y-73154000D02*
X27075000Y-73154000D01*
X24995000Y-73194000D02*
X23706000Y-73194000D01*
X28364000Y-73194000D02*
X27075000Y-73194000D01*
X24995000Y-73234000D02*
X23687000Y-73234000D01*
X28383000Y-73234000D02*
X27075000Y-73234000D01*
X24995000Y-73274000D02*
X23670000Y-73274000D01*
X28400000Y-73274000D02*
X27075000Y-73274000D01*
X24995000Y-73314000D02*
X23653000Y-73314000D01*
X28417000Y-73314000D02*
X27075000Y-73314000D01*
X24995000Y-73354000D02*
X23637000Y-73354000D01*
X28433000Y-73354000D02*
X27075000Y-73354000D01*
X24995000Y-73394000D02*
X23621000Y-73394000D01*
X28449000Y-73394000D02*
X27075000Y-73394000D01*
X24995000Y-73434000D02*
X23607000Y-73434000D01*
X28463000Y-73434000D02*
X27075000Y-73434000D01*
X24995000Y-73474000D02*
X23593000Y-73474000D01*
X28477000Y-73474000D02*
X27075000Y-73474000D01*
X24995000Y-73514000D02*
X23580000Y-73514000D01*
X28490000Y-73514000D02*
X27075000Y-73514000D01*
X24995000Y-73554000D02*
X23567000Y-73554000D01*
X28503000Y-73554000D02*
X27075000Y-73554000D01*
X24995000Y-73594000D02*
X23555000Y-73594000D01*
X28515000Y-73594000D02*
X27075000Y-73594000D01*
X24995000Y-73635000D02*
X23544000Y-73635000D01*
X28526000Y-73635000D02*
X27075000Y-73635000D01*
X24995000Y-73675000D02*
X23534000Y-73675000D01*
X28536000Y-73675000D02*
X27075000Y-73675000D01*
X24995000Y-73715000D02*
X23524000Y-73715000D01*
X28546000Y-73715000D02*
X27075000Y-73715000D01*
X24995000Y-73755000D02*
X23515000Y-73755000D01*
X28555000Y-73755000D02*
X27075000Y-73755000D01*
X24995000Y-73795000D02*
X23507000Y-73795000D01*
X28563000Y-73795000D02*
X27075000Y-73795000D01*
X24995000Y-73835000D02*
X23499000Y-73835000D01*
X28571000Y-73835000D02*
X27075000Y-73835000D01*
X24995000Y-73875000D02*
X23492000Y-73875000D01*
X28578000Y-73875000D02*
X27075000Y-73875000D01*
X24995000Y-73915000D02*
X23485000Y-73915000D01*
X28585000Y-73915000D02*
X27075000Y-73915000D01*
X24995000Y-73955000D02*
X23479000Y-73955000D01*
X28591000Y-73955000D02*
X27075000Y-73955000D01*
X24995000Y-73995000D02*
X23474000Y-73995000D01*
X28596000Y-73995000D02*
X27075000Y-73995000D01*
X24995000Y-74035000D02*
X23470000Y-74035000D01*
X28600000Y-74035000D02*
X27075000Y-74035000D01*
X24995000Y-74075000D02*
X23466000Y-74075000D01*
X28604000Y-74075000D02*
X27075000Y-74075000D01*
X28608000Y-74115000D02*
X23462000Y-74115000D01*
X28611000Y-74155000D02*
X23459000Y-74155000D01*
X28613000Y-74195000D02*
X23457000Y-74195000D01*
X28614000Y-74235000D02*
X23456000Y-74235000D01*
X28615000Y-74275000D02*
X23455000Y-74275000D01*
X28615000Y-74315000D02*
X23455000Y-74315000D01*
X28655000Y-74315000D02*
G75*
G03X28655000Y-74315000I-2620000J0D01*
G01*
D10*
X21327380Y-63801666D02*
X22041666Y-63801666D01*
X22184523Y-63754047D01*
X22279761Y-63658809D01*
X22327380Y-63515952D01*
X22327380Y-63420714D01*
X21327380Y-64182619D02*
X21327380Y-64801666D01*
X21708333Y-64468333D01*
X21708333Y-64611190D01*
X21755952Y-64706428D01*
X21803571Y-64754047D01*
X21898809Y-64801666D01*
X22136904Y-64801666D01*
X22232142Y-64754047D01*
X22279761Y-64706428D01*
X22327380Y-64611190D01*
X22327380Y-64325476D01*
X22279761Y-64230238D01*
X22232142Y-64182619D01*
X27638333Y-48137380D02*
X27638333Y-48851666D01*
X27685952Y-48994523D01*
X27781190Y-49089761D01*
X27924047Y-49137380D01*
X28019285Y-49137380D01*
X26638333Y-49137380D02*
X27209761Y-49137380D01*
X26924047Y-49137380D02*
X26924047Y-48137380D01*
X27019285Y-48280238D01*
X27114523Y-48375476D01*
X27209761Y-48423095D01*
X30142142Y-74148333D02*
X30189761Y-74100714D01*
X30237380Y-73957857D01*
X30237380Y-73862619D01*
X30189761Y-73719761D01*
X30094523Y-73624523D01*
X29999285Y-73576904D01*
X29808809Y-73529285D01*
X29665952Y-73529285D01*
X29475476Y-73576904D01*
X29380238Y-73624523D01*
X29285000Y-73719761D01*
X29237380Y-73862619D01*
X29237380Y-73957857D01*
X29285000Y-74100714D01*
X29332619Y-74148333D01*
X30237380Y-75100714D02*
X30237380Y-74529285D01*
X30237380Y-74815000D02*
X29237380Y-74815000D01*
X29380238Y-74719761D01*
X29475476Y-74624523D01*
X29523095Y-74529285D01*
M02*
