G04 #@! TF.GenerationSoftware,KiCad,Pcbnew,(5.1.5-0-10_14)*
G04 #@! TF.CreationDate,2020-03-13T19:41:52-07:00*
G04 #@! TF.ProjectId,SpectrumAnayzerMini32Horz,53706563-7472-4756-9d41-6e61797a6572,rev?*
G04 #@! TF.SameCoordinates,Original*
G04 #@! TF.FileFunction,Other,Fab,Bot*
%FSLAX46Y46*%
G04 Gerber Fmt 4.6, Leading zero omitted, Abs format (unit mm)*
G04 Created by KiCad (PCBNEW (5.1.5-0-10_14)) date 2020-03-13 19:41:52*
%MOMM*%
%LPD*%
G04 APERTURE LIST*
%ADD10C,0.100000*%
%ADD11C,0.150000*%
G04 APERTURE END LIST*
D10*
X25200000Y-68646000D02*
X26735000Y-67111000D01*
X25335000Y-68780000D02*
X26870000Y-67245000D01*
X25200000Y-66106000D02*
X26735000Y-64571000D01*
X25335000Y-66240000D02*
X26870000Y-64705000D01*
X25200000Y-63566000D02*
X26735000Y-62031000D01*
X25335000Y-63700000D02*
X26870000Y-62165000D01*
X25200000Y-61026000D02*
X26735000Y-59490000D01*
X25335000Y-61160000D02*
X26870000Y-59624000D01*
X23335000Y-58825000D02*
X23335000Y-69445000D01*
X28635000Y-58825000D02*
X28635000Y-69445000D01*
X28635000Y-58825000D02*
X22935000Y-58825000D01*
X29135000Y-59325000D02*
X28635000Y-58825000D01*
X29135000Y-69445000D02*
X29135000Y-59325000D01*
X22935000Y-69445000D02*
X29135000Y-69445000D01*
X22935000Y-58825000D02*
X22935000Y-69445000D01*
X27135000Y-67945000D02*
G75*
G03X27135000Y-67945000I-1100000J0D01*
G01*
X27135000Y-65405000D02*
G75*
G03X27135000Y-65405000I-1100000J0D01*
G01*
X27135000Y-62865000D02*
G75*
G03X27135000Y-62865000I-1100000J0D01*
G01*
X27135000Y-60325000D02*
G75*
G03X27135000Y-60325000I-1100000J0D01*
G01*
X26035000Y-46990000D02*
X26670000Y-47625000D01*
X26035000Y-37465000D02*
X26035000Y-46990000D01*
X28575000Y-37465000D02*
X26035000Y-37465000D01*
X28575000Y-47625000D02*
X28575000Y-37465000D01*
X26670000Y-47625000D02*
X28575000Y-47625000D01*
X27372500Y-76198605D02*
X26872500Y-76198605D01*
X27122500Y-76448605D02*
X27122500Y-75948605D01*
X28535000Y-74315000D02*
G75*
G03X28535000Y-74315000I-2500000J0D01*
G01*
D11*
X30599761Y-62992142D02*
X30647380Y-63135000D01*
X30647380Y-63373095D01*
X30599761Y-63468333D01*
X30552142Y-63515952D01*
X30456904Y-63563571D01*
X30361666Y-63563571D01*
X30266428Y-63515952D01*
X30218809Y-63468333D01*
X30171190Y-63373095D01*
X30123571Y-63182619D01*
X30075952Y-63087380D01*
X30028333Y-63039761D01*
X29933095Y-62992142D01*
X29837857Y-62992142D01*
X29742619Y-63039761D01*
X29695000Y-63087380D01*
X29647380Y-63182619D01*
X29647380Y-63420714D01*
X29695000Y-63563571D01*
X29647380Y-63849285D02*
X29647380Y-64420714D01*
X30647380Y-64135000D02*
X29647380Y-64135000D01*
X29647380Y-64658809D02*
X29647380Y-65277857D01*
X30028333Y-64944523D01*
X30028333Y-65087380D01*
X30075952Y-65182619D01*
X30123571Y-65230238D01*
X30218809Y-65277857D01*
X30456904Y-65277857D01*
X30552142Y-65230238D01*
X30599761Y-65182619D01*
X30647380Y-65087380D01*
X30647380Y-64801666D01*
X30599761Y-64706428D01*
X30552142Y-64658809D01*
X27487380Y-63801666D02*
X28201666Y-63801666D01*
X28344523Y-63754047D01*
X28439761Y-63658809D01*
X28487380Y-63515952D01*
X28487380Y-63420714D01*
X27487380Y-64182619D02*
X27487380Y-64801666D01*
X27868333Y-64468333D01*
X27868333Y-64611190D01*
X27915952Y-64706428D01*
X27963571Y-64754047D01*
X28058809Y-64801666D01*
X28296904Y-64801666D01*
X28392142Y-64754047D01*
X28439761Y-64706428D01*
X28487380Y-64611190D01*
X28487380Y-64325476D01*
X28439761Y-64230238D01*
X28392142Y-64182619D01*
X28947857Y-36857380D02*
X28947857Y-35857380D01*
X28471666Y-36190714D02*
X28471666Y-36857380D01*
X28471666Y-36285952D02*
X28424047Y-36238333D01*
X28328809Y-36190714D01*
X28185952Y-36190714D01*
X28090714Y-36238333D01*
X28043095Y-36333571D01*
X28043095Y-36857380D01*
X27566904Y-36190714D02*
X27566904Y-37190714D01*
X27566904Y-36238333D02*
X27471666Y-36190714D01*
X27281190Y-36190714D01*
X27185952Y-36238333D01*
X27138333Y-36285952D01*
X27090714Y-36381190D01*
X27090714Y-36666904D01*
X27138333Y-36762142D01*
X27185952Y-36809761D01*
X27281190Y-36857380D01*
X27471666Y-36857380D01*
X27566904Y-36809761D01*
X26233571Y-36190714D02*
X26233571Y-36857380D01*
X26662142Y-36190714D02*
X26662142Y-36714523D01*
X26614523Y-36809761D01*
X26519285Y-36857380D01*
X26376428Y-36857380D01*
X26281190Y-36809761D01*
X26233571Y-36762142D01*
X25900238Y-36190714D02*
X25519285Y-36190714D01*
X25757380Y-35857380D02*
X25757380Y-36714523D01*
X25709761Y-36809761D01*
X25614523Y-36857380D01*
X25519285Y-36857380D01*
X27852619Y-42878333D02*
X27138333Y-42878333D01*
X26995476Y-42925952D01*
X26900238Y-43021190D01*
X26852619Y-43164047D01*
X26852619Y-43259285D01*
X26852619Y-41878333D02*
X26852619Y-42449761D01*
X26852619Y-42164047D02*
X27852619Y-42164047D01*
X27709761Y-42259285D01*
X27614523Y-42354523D01*
X27566904Y-42449761D01*
X22737380Y-72910238D02*
X22737380Y-72338809D01*
X22737380Y-72624523D02*
X21737380Y-72624523D01*
X21880238Y-72529285D01*
X21975476Y-72434047D01*
X22023095Y-72338809D01*
X21737380Y-73529285D02*
X21737380Y-73624523D01*
X21785000Y-73719761D01*
X21832619Y-73767380D01*
X21927857Y-73815000D01*
X22118333Y-73862619D01*
X22356428Y-73862619D01*
X22546904Y-73815000D01*
X22642142Y-73767380D01*
X22689761Y-73719761D01*
X22737380Y-73624523D01*
X22737380Y-73529285D01*
X22689761Y-73434047D01*
X22642142Y-73386428D01*
X22546904Y-73338809D01*
X22356428Y-73291190D01*
X22118333Y-73291190D01*
X21927857Y-73338809D01*
X21832619Y-73386428D01*
X21785000Y-73434047D01*
X21737380Y-73529285D01*
X21737380Y-74481666D02*
X21737380Y-74576904D01*
X21785000Y-74672142D01*
X21832619Y-74719761D01*
X21927857Y-74767380D01*
X22118333Y-74815000D01*
X22356428Y-74815000D01*
X22546904Y-74767380D01*
X22642142Y-74719761D01*
X22689761Y-74672142D01*
X22737380Y-74576904D01*
X22737380Y-74481666D01*
X22689761Y-74386428D01*
X22642142Y-74338809D01*
X22546904Y-74291190D01*
X22356428Y-74243571D01*
X22118333Y-74243571D01*
X21927857Y-74291190D01*
X21832619Y-74338809D01*
X21785000Y-74386428D01*
X21737380Y-74481666D01*
X22070714Y-75672142D02*
X22737380Y-75672142D01*
X22070714Y-75243571D02*
X22594523Y-75243571D01*
X22689761Y-75291190D01*
X22737380Y-75386428D01*
X22737380Y-75529285D01*
X22689761Y-75624523D01*
X22642142Y-75672142D01*
X22070714Y-76005476D02*
X22070714Y-76386428D01*
X22737380Y-76148333D02*
X21880238Y-76148333D01*
X21785000Y-76195952D01*
X21737380Y-76291190D01*
X21737380Y-76386428D01*
X26392142Y-74148333D02*
X26439761Y-74100714D01*
X26487380Y-73957857D01*
X26487380Y-73862619D01*
X26439761Y-73719761D01*
X26344523Y-73624523D01*
X26249285Y-73576904D01*
X26058809Y-73529285D01*
X25915952Y-73529285D01*
X25725476Y-73576904D01*
X25630238Y-73624523D01*
X25535000Y-73719761D01*
X25487380Y-73862619D01*
X25487380Y-73957857D01*
X25535000Y-74100714D01*
X25582619Y-74148333D01*
X26487380Y-75100714D02*
X26487380Y-74529285D01*
X26487380Y-74815000D02*
X25487380Y-74815000D01*
X25630238Y-74719761D01*
X25725476Y-74624523D01*
X25773095Y-74529285D01*
M02*
